<svg width="36" height="36" viewBox="0 0 36 36" fill="none" xmlns="http://www.w3.org/2000/svg">
<path d="M15 25.5H10.5C8.51088 25.5 6.60322 24.7098 5.1967 23.3033C3.79018 21.8968 3 19.9891 3 18C3 16.0109 3.79018 14.1032 5.1967 12.6967C6.60322 11.2902 8.51088 10.5 10.5 10.5H15C15.3978 10.5 15.7794 10.658 16.0607 10.9393C16.342 11.2206 16.5 11.6022 16.5 12C16.5 12.3978 16.342 12.7794 16.0607 13.0607C15.7794 13.342 15.3978 13.5 15 13.5H10.5C9.30653 13.5 8.16193 13.9741 7.31802 14.818C6.47411 15.6619 6 16.8065 6 18C6 19.1935 6.47411 20.3381 7.31802 21.182C8.16193 22.0259 9.30653 22.5 10.5 22.5H15C15.3978 22.5 15.7794 22.658 16.0607 22.9393C16.342 23.2206 16.5 23.6022 16.5 24C16.5 24.3978 16.342 24.7794 16.0607 25.0607C15.7794 25.342 15.3978 25.5 15 25.5ZM25.5 25.5H21C20.6022 25.5 20.2206 25.342 19.9393 25.0607C19.658 24.7794 19.5 24.3978 19.5 24C19.5 23.6022 19.658 23.2206 19.9393 22.9393C20.2206 22.658 20.6022 22.5 21 22.5H25.5C26.6935 22.5 27.8381 22.0259 28.682 21.182C29.5259 20.3381 30 19.1935 30 18C30 16.8065 29.5259 15.6619 28.682 14.818C27.8381 13.9741 26.6935 13.5 25.5 13.5H21C20.6022 13.5 20.2206 13.342 19.9393 13.0607C19.658 12.7794 19.5 12.3978 19.5 12C19.5 11.6022 19.658 11.2206 19.9393 10.9393C20.2206 10.658 20.6022 10.5 21 10.5H25.5C27.4891 10.5 29.3968 11.2902 30.8033 12.6967C32.2098 14.1032 33 16.0109 33 18C33 19.9891 32.2098 21.8968 30.8033 23.3033C29.3968 24.7098 27.4891 25.5 25.5 25.5Z" fill="white"/>
<path d="M22.5 19.5H13.5C13.1022 19.5 12.7206 19.342 12.4393 19.0607C12.158 18.7794 12 18.3978 12 18C12 17.6022 12.158 17.2206 12.4393 16.9393C12.7206 16.658 13.1022 16.5 13.5 16.5H22.5C22.8978 16.5 23.2794 16.658 23.5607 16.9393C23.842 17.2206 24 17.6022 24 18C24 18.3978 23.842 18.7794 23.5607 19.0607C23.2794 19.342 22.8978 19.5 22.5 19.5Z" fill="white"/>
</svg>
