<svg width="466" height="154" viewBox="0 0 466 154" fill="none" xmlns="http://www.w3.org/2000/svg">
<g filter="url(#filter0_b_801:4053)">
<path d="M4.1653 139.154C2.07379 146.609 7.67673 154 15.4191 154L450.504 154C458.27 154 463.876 146.567 461.743 139.101L424.422 8.47728C422.988 3.45947 418.402 0 413.184 0L52.0682 0C46.829 0 42.2298 3.48637 40.8145 8.53082L4.1653 139.154Z" fill="#00001E"/>
<path d="M4.1653 139.154C2.07379 146.609 7.67673 154 15.4191 154L450.504 154C458.27 154 463.876 146.567 461.743 139.101L424.422 8.47728C422.988 3.45947 418.402 0 413.184 0L52.0682 0C46.829 0 42.2298 3.48637 40.8145 8.53082L4.1653 139.154Z" fill="url(#paint0_linear_801:4053)"/>
<path d="M4.64671 139.289C2.64467 146.425 8.00793 153.5 15.4191 153.5L450.504 153.5C457.938 153.5 463.304 146.385 461.262 139.238L423.941 8.61464C422.569 3.81148 418.179 0.5 413.184 0.5L52.0682 0.5C47.0531 0.5 42.6507 3.83723 41.2959 8.66589L4.64671 139.289Z" stroke="url(#paint1_linear_801:4053)"/>
</g>
<path d="M128.478 88L135.606 70.096H138.582L145.734 88H142.734L141.414 84.592H132.702L131.382 88H128.478ZM133.71 81.904H140.382L137.046 73.576L133.71 81.904ZM160.142 87.904C159.182 88.176 158.038 88.312 156.71 88.312C155.382 88.312 154.23 88.176 153.254 87.904C152.294 87.632 151.542 87.296 150.998 86.896C150.454 86.48 150.022 85.952 149.702 85.312C149.398 84.656 149.198 84.032 149.102 83.44C149.022 82.848 148.982 82.16 148.982 81.376V70.216H151.886V80.992C151.886 82.544 152.222 83.704 152.894 84.472C153.566 85.224 154.846 85.6 156.734 85.6C158.638 85.6 159.934 85.224 160.622 84.472C161.31 83.72 161.654 82.56 161.654 80.992V70.216H164.486V81.376C164.486 82.16 164.438 82.848 164.342 83.44C164.246 84.032 164.038 84.648 163.718 85.288C163.398 85.928 162.966 86.456 162.422 86.872C161.878 87.288 161.118 87.632 160.142 87.904ZM169.667 88V70.216H175.739C177.515 70.216 178.979 70.352 180.131 70.624C181.299 70.896 182.275 71.376 183.059 72.064C183.859 72.736 184.427 73.64 184.763 74.776C185.099 75.912 185.267 77.352 185.267 79.096C185.267 82.44 184.523 84.76 183.035 86.056C181.563 87.352 179.067 88 175.547 88H169.667ZM172.571 85.312H175.691C178.267 85.312 180.019 84.856 180.947 83.944C181.875 83.032 182.339 81.416 182.339 79.096C182.339 77.896 182.251 76.928 182.075 76.192C181.899 75.456 181.563 74.84 181.067 74.344C180.587 73.832 179.923 73.48 179.075 73.288C178.243 73.08 177.147 72.976 175.787 72.976H172.571V85.312ZM189.768 88V70.216H192.648V88H189.768ZM203.155 88V73H196.747V70.216H212.491V73H206.083V88H203.155Z" fill="white"/>
<path d="M309 88V73.921H315.764C317.828 73.921 319.279 74.32 320.115 75.118C320.963 75.916 321.388 77.0877 321.388 78.633C321.388 79.393 321.299 80.0643 321.122 80.647C320.944 81.2297 320.64 81.7617 320.21 82.243C319.792 82.7117 319.196 83.0727 318.424 83.326C317.651 83.5667 316.714 83.687 315.612 83.687H312.04V88H309ZM312.04 81.027H315.745C316.644 81.027 317.29 80.856 317.683 80.514C318.075 80.172 318.272 79.5957 318.272 78.785C318.272 77.949 318.075 77.3727 317.683 77.056C317.303 76.7393 316.644 76.581 315.707 76.581H312.04V81.027Z" fill="url(#paint2_linear_801:4053)"/>
<path d="M324.575 88V73.921H329.629C331.073 73.921 332.264 74.0287 333.201 74.244C334.151 74.4467 334.956 74.814 335.614 75.346C336.286 75.878 336.761 76.6 337.039 77.512C337.331 78.4113 337.476 79.5577 337.476 80.951C337.476 82.319 337.324 83.459 337.02 84.371C336.729 85.2703 336.248 85.9923 335.576 86.537C334.918 87.069 334.107 87.449 333.144 87.677C332.182 87.8923 330.985 88 329.553 88H324.575ZM327.691 85.283H329.724C330.687 85.283 331.466 85.2133 332.061 85.074C332.657 84.922 333.125 84.6623 333.467 84.295C333.809 83.9277 334.037 83.4907 334.151 82.984C334.278 82.4647 334.341 81.787 334.341 80.951C334.341 80.1023 334.284 79.431 334.17 78.937C334.069 78.443 333.847 78.0187 333.505 77.664C333.176 77.2967 332.707 77.0497 332.099 76.923C331.491 76.7837 330.681 76.714 329.667 76.714H327.691V85.283Z" fill="url(#paint3_linear_801:4053)"/>
<path d="M340.652 88V73.921H350.893V76.733H343.768V79.754H350.703V82.528H343.768V88H340.652Z" fill="url(#paint4_linear_801:4053)"/>
<path fill-rule="evenodd" clip-rule="evenodd" d="M390.566 55C390.329 54.4786 389.999 53.9987 389.586 53.5858L364.414 28.4142C364.001 28.0013 363.521 27.671 363 27.4337C362.378 27.1506 361.697 27 361 27H324C321.239 27 319 29.2386 319 32V61H304C300.686 61 298 63.6863 298 67V95C298 98.3137 300.686 101 304 101H319V121C319 123.761 321.239 126 324 126H386C388.761 126 391 123.761 391 121V57C391 56.3033 390.849 55.6221 390.566 55ZM363 32.6569L385.343 55H366C364.343 55 363 53.6569 363 52V32.6569ZM366 59C362.134 59 359 55.866 359 52V31H324C323.448 31 323 31.4477 323 32V61H355C358.314 61 361 63.6863 361 67V95C361 98.3137 358.314 101 355 101H323V121C323 121.552 323.448 122 324 122H386C386.552 122 387 121.552 387 121V59H366ZM302 67C302 65.8954 302.895 65 304 65H355C356.105 65 357 65.8954 357 67V95C357 96.1046 356.105 97 355 97H304C302.895 97 302 96.1046 302 95V67Z" fill="url(#paint5_linear_801:4053)"/>
<defs>
<filter id="filter0_b_801:4053" x="-21.2112" y="-24.9351" width="508.346" height="203.87" filterUnits="userSpaceOnUse" color-interpolation-filters="sRGB">
<feFlood flood-opacity="0" result="BackgroundImageFix"/>
<feGaussianBlur in="BackgroundImage" stdDeviation="12.4675"/>
<feComposite in2="SourceAlpha" operator="in" result="effect1_backgroundBlur_801:4053"/>
<feBlend mode="normal" in="SourceGraphic" in2="effect1_backgroundBlur_801:4053" result="shape"/>
</filter>
<linearGradient id="paint0_linear_801:4053" x1="476" y1="5.7718e-05" x2="70.0642" y2="154.169" gradientUnits="userSpaceOnUse">
<stop stop-color="#6FDCFF" stop-opacity="0.38"/>
<stop offset="1" stop-color="#FF248D" stop-opacity="0"/>
</linearGradient>
<linearGradient id="paint1_linear_801:4053" x1="460.582" y1="59.0334" x2="125.273" y2="122.057" gradientUnits="userSpaceOnUse">
<stop stop-color="#FF248D" stop-opacity="0"/>
<stop offset="1" stop-color="#6FDCFF" stop-opacity="0.38"/>
</linearGradient>
<linearGradient id="paint2_linear_801:4053" x1="391.178" y1="88.05" x2="312.79" y2="122.583" gradientUnits="userSpaceOnUse">
<stop stop-color="#93FFF8" stop-opacity="0.31"/>
<stop offset="0.86993" stop-color="#FF3395"/>
</linearGradient>
<linearGradient id="paint3_linear_801:4053" x1="391.178" y1="88.05" x2="312.79" y2="122.583" gradientUnits="userSpaceOnUse">
<stop stop-color="#93FFF8" stop-opacity="0.31"/>
<stop offset="0.86993" stop-color="#FF3395"/>
</linearGradient>
<linearGradient id="paint4_linear_801:4053" x1="391.178" y1="88.05" x2="312.79" y2="122.583" gradientUnits="userSpaceOnUse">
<stop stop-color="#93FFF8" stop-opacity="0.31"/>
<stop offset="0.86993" stop-color="#FF3395"/>
</linearGradient>
<linearGradient id="paint5_linear_801:4053" x1="391.178" y1="88.05" x2="312.79" y2="122.583" gradientUnits="userSpaceOnUse">
<stop stop-color="#93FFF8" stop-opacity="0.31"/>
<stop offset="0.86993" stop-color="#FF3395"/>
</linearGradient>
</defs>
</svg>
