<svg width="423" height="154" viewBox="0 0 423 154" fill="none" xmlns="http://www.w3.org/2000/svg">
<g opacity="0.4">
<g filter="url(#filter0_b_801:4036)">
<path d="M407.995 154C416.281 154 422.998 147.281 422.995 138.995L422.954 14.995C422.951 6.71269 416.236 0 407.954 0L54.3854 0C47.6548 0 41.7482 4.48331 39.9381 10.966L5.31469 134.966C2.64467 144.528 9.8339 154 19.7621 154L43.051 154L407.995 154Z" fill="#00001E"/>
<path d="M407.995 154C416.281 154 422.998 147.281 422.995 138.995L422.954 14.995C422.951 6.71269 416.236 0 407.954 0L54.3854 0C47.6548 0 41.7482 4.48331 39.9381 10.966L5.31469 134.966C2.64467 144.528 9.8339 154 19.7621 154L43.051 154L407.995 154Z" fill="url(#paint0_linear_801:4036)" fill-opacity="0.3"/>
<path d="M407.995 153.5C416.005 153.5 422.498 147.005 422.495 138.995L422.454 14.9952C422.451 6.98894 415.96 0.5 407.954 0.5L54.3854 0.5C47.8791 0.5 42.1694 4.83386 40.4196 11.1004L5.79627 135.1C3.21525 144.344 10.1648 153.5 19.7621 153.5L43.051 153.5L407.995 153.5Z" stroke="url(#paint1_linear_801:4036)"/>
</g>
<path d="M124.754 73.192C123.058 73.192 121.656 72.632 120.546 71.512C119.437 70.392 118.882 69.0213 118.882 67.4C118.882 65.7787 119.437 64.408 120.546 63.288C121.656 62.168 123.058 61.608 124.754 61.608C125.789 61.608 126.738 61.8587 127.602 62.36C128.466 62.8507 129.133 63.5173 129.602 64.36L128.61 64.936C128.258 64.2533 127.736 63.7093 127.042 63.304C126.349 62.8987 125.586 62.696 124.754 62.696C123.357 62.696 122.216 63.1493 121.33 64.056C120.445 64.9627 120.002 66.0773 120.002 67.4C120.002 68.7227 120.445 69.8373 121.33 70.744C122.216 71.6507 123.357 72.104 124.754 72.104C125.586 72.104 126.349 71.9013 127.042 71.496C127.736 71.0907 128.258 70.5467 128.61 69.864L129.602 70.424C129.144 71.2667 128.477 71.9387 127.602 72.44C126.738 72.9413 125.789 73.192 124.754 73.192ZM135.028 64.808C135.999 64.808 136.761 65.1067 137.316 65.704C137.881 66.2907 138.164 67.0853 138.164 68.088V73H137.108V68.088C137.108 67.3733 136.916 66.8187 136.532 66.424C136.159 66.0293 135.625 65.832 134.932 65.832C134.164 65.832 133.54 66.0773 133.06 66.568C132.58 67.048 132.34 67.7947 132.34 68.808V73H131.284V61.8H132.34V66.248C132.937 65.288 133.833 64.808 135.028 64.808ZM143.902 64.808C145.086 64.808 146.041 65.2293 146.766 66.072C147.502 66.904 147.87 67.8907 147.87 69.032C147.87 69.1493 147.859 69.3147 147.838 69.528H140.814C140.921 70.3387 141.262 70.984 141.838 71.464C142.425 71.9333 143.145 72.168 143.998 72.168C144.606 72.168 145.129 72.0453 145.566 71.8C146.014 71.544 146.35 71.2133 146.574 70.808L147.502 71.352C147.15 71.9173 146.67 72.3653 146.062 72.696C145.454 73.0267 144.761 73.192 143.982 73.192C142.723 73.192 141.699 72.7973 140.91 72.008C140.121 71.2187 139.726 70.216 139.726 69C139.726 67.8053 140.115 66.808 140.894 66.008C141.673 65.208 142.675 64.808 143.902 64.808ZM143.902 65.832C143.07 65.832 142.371 66.0827 141.806 66.584C141.251 67.0747 140.921 67.7147 140.814 68.504H146.782C146.675 67.6613 146.35 67.0053 145.806 66.536C145.262 66.0667 144.627 65.832 143.902 65.832ZM153.278 73.192C152.072 73.192 151.07 72.792 150.27 71.992C149.47 71.1813 149.07 70.184 149.07 69C149.07 67.816 149.47 66.824 150.27 66.024C151.07 65.2133 152.072 64.808 153.278 64.808C154.067 64.808 154.776 65 155.406 65.384C156.035 65.7573 156.494 66.264 156.782 66.904L155.918 67.4C155.704 66.92 155.358 66.5413 154.878 66.264C154.408 65.976 153.875 65.832 153.278 65.832C152.392 65.832 151.646 66.1413 151.038 66.76C150.43 67.368 150.126 68.1147 150.126 69C150.126 69.8853 150.43 70.6373 151.038 71.256C151.646 71.864 152.392 72.168 153.278 72.168C153.875 72.168 154.408 72.0293 154.878 71.752C155.347 71.464 155.715 71.08 155.982 70.6L156.862 71.112C156.531 71.752 156.046 72.2587 155.406 72.632C154.766 73.0053 154.056 73.192 153.278 73.192ZM164.842 73H163.434L159.434 69.144V73H158.378V61.8H159.434V68.536L163.242 65H164.682L160.554 68.84L164.842 73ZM174.572 64.808C175.713 64.808 176.684 65.2133 177.484 66.024C178.295 66.8347 178.7 67.8267 178.7 69C178.7 70.1733 178.295 71.1653 177.484 71.976C176.684 72.7867 175.713 73.192 174.572 73.192C173.153 73.192 172.076 72.6053 171.34 71.432V76.2H170.284V65H171.34V66.568C172.076 65.3947 173.153 64.808 174.572 64.808ZM172.252 71.256C172.86 71.864 173.607 72.168 174.492 72.168C175.377 72.168 176.124 71.864 176.732 71.256C177.34 70.6373 177.644 69.8853 177.644 69C177.644 68.1147 177.34 67.368 176.732 66.76C176.124 66.1413 175.377 65.832 174.492 65.832C173.607 65.832 172.86 66.1413 172.252 66.76C171.644 67.368 171.34 68.1147 171.34 69C171.34 69.8853 171.644 70.6373 172.252 71.256ZM181.512 66.328C182.003 65.3573 182.845 64.872 184.04 64.872V65.896C183.315 65.896 182.712 66.1093 182.232 66.536C181.752 66.9627 181.512 67.6347 181.512 68.552V73H180.456V65H181.512V66.328ZM188.699 64.808C189.883 64.808 190.837 65.2293 191.563 66.072C192.299 66.904 192.667 67.8907 192.667 69.032C192.667 69.1493 192.656 69.3147 192.635 69.528H185.611C185.717 70.3387 186.059 70.984 186.635 71.464C187.221 71.9333 187.941 72.168 188.795 72.168C189.403 72.168 189.925 72.0453 190.363 71.8C190.811 71.544 191.147 71.2133 191.371 70.808L192.299 71.352C191.947 71.9173 191.467 72.3653 190.859 72.696C190.251 73.0267 189.557 73.192 188.779 73.192C187.52 73.192 186.496 72.7973 185.707 72.008C184.917 71.2187 184.523 70.216 184.523 69C184.523 67.8053 184.912 66.808 185.691 66.008C186.469 65.208 187.472 64.808 188.699 64.808ZM188.699 65.832C187.867 65.832 187.168 66.0827 186.603 66.584C186.048 67.0747 185.717 67.7147 185.611 68.504H191.579C191.472 67.6613 191.147 67.0053 190.603 66.536C190.059 66.0667 189.424 65.832 188.699 65.832ZM194.866 67.096C194.866 67.4587 195.026 67.7467 195.346 67.96C195.666 68.1733 196.055 68.3387 196.514 68.456C196.973 68.5733 197.431 68.7067 197.89 68.856C198.349 68.9947 198.738 69.2347 199.058 69.576C199.378 69.9067 199.538 70.344 199.538 70.888C199.538 71.5707 199.266 72.1253 198.722 72.552C198.189 72.9787 197.495 73.192 196.642 73.192C195.874 73.192 195.218 73.0213 194.674 72.68C194.141 72.3387 193.767 71.896 193.554 71.352L194.45 70.824C194.599 71.24 194.866 71.5707 195.25 71.816C195.645 72.0507 196.109 72.168 196.642 72.168C197.165 72.168 197.602 72.0667 197.954 71.864C198.306 71.6507 198.482 71.3253 198.482 70.888C198.482 70.5253 198.322 70.2373 198.002 70.024C197.682 69.8107 197.293 69.6453 196.834 69.528C196.375 69.4107 195.917 69.2827 195.458 69.144C194.999 68.9947 194.61 68.7547 194.29 68.424C193.97 68.0827 193.81 67.64 193.81 67.096C193.81 66.4453 194.066 65.9013 194.578 65.464C195.101 65.0267 195.757 64.808 196.546 64.808C197.197 64.808 197.767 64.9573 198.258 65.256C198.749 65.544 199.111 65.9387 199.346 66.44L198.466 66.952C198.157 66.2053 197.517 65.832 196.546 65.832C196.087 65.832 195.693 65.944 195.362 66.168C195.031 66.3813 194.866 66.6907 194.866 67.096ZM207.945 65H209.001V73H207.945V71.432C207.209 72.6053 206.132 73.192 204.713 73.192C203.572 73.192 202.596 72.7867 201.785 71.976C200.985 71.1653 200.585 70.1733 200.585 69C200.585 67.8267 200.985 66.8347 201.785 66.024C202.596 65.2133 203.572 64.808 204.713 64.808C206.132 64.808 207.209 65.3947 207.945 66.568V65ZM202.553 71.256C203.161 71.864 203.908 72.168 204.793 72.168C205.679 72.168 206.425 71.864 207.033 71.256C207.641 70.6373 207.945 69.8853 207.945 69C207.945 68.1147 207.641 67.368 207.033 66.76C206.425 66.1413 205.679 65.832 204.793 65.832C203.908 65.832 203.161 66.1413 202.553 66.76C201.945 67.368 201.641 68.1147 201.641 69C201.641 69.8853 201.945 70.6373 202.553 71.256ZM211.237 73V61.32H212.293V73H211.237ZM218.23 64.808C219.414 64.808 220.369 65.2293 221.094 66.072C221.83 66.904 222.198 67.8907 222.198 69.032C222.198 69.1493 222.187 69.3147 222.166 69.528H215.142C215.249 70.3387 215.59 70.984 216.166 71.464C216.753 71.9333 217.473 72.168 218.326 72.168C218.934 72.168 219.457 72.0453 219.894 71.8C220.342 71.544 220.678 71.2133 220.902 70.808L221.83 71.352C221.478 71.9173 220.998 72.3653 220.39 72.696C219.782 73.0267 219.089 73.192 218.31 73.192C217.051 73.192 216.027 72.7973 215.238 72.008C214.449 71.2187 214.054 70.216 214.054 69C214.054 67.8053 214.443 66.808 215.222 66.008C216.001 65.208 217.003 64.808 218.23 64.808ZM218.23 65.832C217.398 65.832 216.699 66.0827 216.134 66.584C215.579 67.0747 215.249 67.7147 215.142 68.504H221.11C221.003 67.6613 220.678 67.0053 220.134 66.536C219.59 66.0667 218.955 65.832 218.23 65.832ZM105.46 86.096C105.46 86.4587 105.62 86.7467 105.94 86.96C106.26 87.1733 106.649 87.3387 107.108 87.456C107.566 87.5733 108.025 87.7067 108.484 87.856C108.942 87.9947 109.332 88.2347 109.652 88.576C109.972 88.9067 110.132 89.344 110.132 89.888C110.132 90.5707 109.86 91.1253 109.316 91.552C108.782 91.9787 108.089 92.192 107.236 92.192C106.468 92.192 105.812 92.0213 105.268 91.68C104.734 91.3387 104.361 90.896 104.148 90.352L105.044 89.824C105.193 90.24 105.46 90.5707 105.844 90.816C106.238 91.0507 106.702 91.168 107.236 91.168C107.758 91.168 108.196 91.0667 108.548 90.864C108.9 90.6507 109.076 90.3253 109.076 89.888C109.076 89.5253 108.916 89.2373 108.596 89.024C108.276 88.8107 107.886 88.6453 107.428 88.528C106.969 88.4107 106.51 88.2827 106.052 88.144C105.593 87.9947 105.204 87.7547 104.884 87.424C104.564 87.0827 104.404 86.64 104.404 86.096C104.404 85.4453 104.66 84.9013 105.172 84.464C105.694 84.0267 106.35 83.808 107.14 83.808C107.79 83.808 108.361 83.9573 108.852 84.256C109.342 84.544 109.705 84.9387 109.94 85.44L109.06 85.952C108.75 85.2053 108.11 84.832 107.14 84.832C106.681 84.832 106.286 84.944 105.956 85.168C105.625 85.3813 105.46 85.6907 105.46 86.096ZM115.821 85.024H113.517V89.872C113.517 90.3093 113.602 90.624 113.773 90.816C113.944 90.9973 114.2 91.0933 114.541 91.104C114.882 91.104 115.309 91.0933 115.821 91.072V92C114.701 92.1707 113.858 92.0907 113.293 91.76C112.738 91.4293 112.461 90.8 112.461 89.872V85.024H110.781V84H112.461V82.08L113.517 81.76V84H115.821V85.024ZM123.977 84H125.033V92H123.977V90.432C123.241 91.6053 122.163 92.192 120.745 92.192C119.603 92.192 118.627 91.7867 117.817 90.976C117.017 90.1653 116.617 89.1733 116.617 88C116.617 86.8267 117.017 85.8347 117.817 85.024C118.627 84.2133 119.603 83.808 120.745 83.808C122.163 83.808 123.241 84.3947 123.977 85.568V84ZM118.585 90.256C119.193 90.864 119.939 91.168 120.825 91.168C121.71 91.168 122.457 90.864 123.065 90.256C123.673 89.6373 123.977 88.8853 123.977 88C123.977 87.1147 123.673 86.368 123.065 85.76C122.457 85.1413 121.71 84.832 120.825 84.832C119.939 84.832 119.193 85.1413 118.585 85.76C117.977 86.368 117.673 87.1147 117.673 88C117.673 88.8853 117.977 89.6373 118.585 90.256ZM131.508 85.024H129.204V89.872C129.204 90.3093 129.29 90.624 129.46 90.816C129.631 90.9973 129.887 91.0933 130.228 91.104C130.57 91.104 130.996 91.0933 131.508 91.072V92C130.388 92.1707 129.546 92.0907 128.98 91.76C128.426 91.4293 128.148 90.8 128.148 89.872V85.024H126.468V84H128.148V82.08L129.204 81.76V84H131.508V85.024ZM138.9 84H139.956V92H138.9V90.752C138.303 91.712 137.407 92.192 136.212 92.192C135.242 92.192 134.474 91.8987 133.908 91.312C133.354 90.7147 133.076 89.9147 133.076 88.912V84H134.132V88.912C134.132 89.6267 134.319 90.1813 134.692 90.576C135.076 90.9707 135.615 91.168 136.308 91.168C137.076 91.168 137.7 90.928 138.18 90.448C138.66 89.9573 138.9 89.2053 138.9 88.192V84ZM143.022 86.096C143.022 86.4587 143.182 86.7467 143.502 86.96C143.822 87.1733 144.212 87.3387 144.67 87.456C145.129 87.5733 145.588 87.7067 146.046 87.856C146.505 87.9947 146.894 88.2347 147.214 88.576C147.534 88.9067 147.694 89.344 147.694 89.888C147.694 90.5707 147.422 91.1253 146.878 91.552C146.345 91.9787 145.652 92.192 144.798 92.192C144.03 92.192 143.374 92.0213 142.83 91.68C142.297 91.3387 141.924 90.896 141.71 90.352L142.606 89.824C142.756 90.24 143.022 90.5707 143.406 90.816C143.801 91.0507 144.265 91.168 144.798 91.168C145.321 91.168 145.758 91.0667 146.11 90.864C146.462 90.6507 146.638 90.3253 146.638 89.888C146.638 89.5253 146.478 89.2373 146.158 89.024C145.838 88.8107 145.449 88.6453 144.99 88.528C144.532 88.4107 144.073 88.2827 143.614 88.144C143.156 87.9947 142.766 87.7547 142.446 87.424C142.126 87.0827 141.966 86.64 141.966 86.096C141.966 85.4453 142.222 84.9013 142.734 84.464C143.257 84.0267 143.913 83.808 144.702 83.808C145.353 83.808 145.924 83.9573 146.414 84.256C146.905 84.544 147.268 84.9387 147.502 85.44L146.622 85.952C146.313 85.2053 145.673 84.832 144.702 84.832C144.244 84.832 143.849 84.944 143.518 85.168C143.188 85.3813 143.022 85.6907 143.022 86.096ZM160.16 90.992C159.349 91.792 158.357 92.192 157.184 92.192C156.011 92.192 155.013 91.792 154.192 90.992C153.381 90.1813 152.976 89.184 152.976 88C152.976 86.816 153.381 85.824 154.192 85.024C155.013 84.2133 156.011 83.808 157.184 83.808C158.357 83.808 159.349 84.2133 160.16 85.024C160.981 85.824 161.392 86.816 161.392 88C161.392 89.184 160.981 90.1813 160.16 90.992ZM154.944 90.256C155.552 90.864 156.299 91.168 157.184 91.168C158.069 91.168 158.816 90.864 159.424 90.256C160.032 89.6373 160.336 88.8853 160.336 88C160.336 87.1147 160.032 86.368 159.424 85.76C158.816 85.1413 158.069 84.832 157.184 84.832C156.299 84.832 155.552 85.1413 154.944 85.76C154.336 86.368 154.032 87.1147 154.032 88C154.032 88.8853 154.336 89.6373 154.944 90.256ZM166.903 83.808C167.874 83.808 168.636 84.1067 169.191 84.704C169.756 85.2907 170.039 86.0853 170.039 87.088V92H168.983V87.088C168.983 86.3733 168.791 85.8187 168.407 85.424C168.034 85.0293 167.5 84.832 166.807 84.832C166.039 84.832 165.415 85.0773 164.935 85.568C164.455 86.048 164.215 86.7947 164.215 87.808V92H163.159V84H164.215V85.248C164.812 84.288 165.708 83.808 166.903 83.808ZM180.209 80.8C181.265 80.8 182.145 81.152 182.849 81.856C183.564 82.56 183.921 83.4347 183.921 84.48C183.921 85.5147 183.564 86.3893 182.849 87.104C182.145 87.808 181.265 88.16 180.209 88.16H177.921V92H176.081V80.8H180.209ZM180.209 86.432C180.753 86.432 181.201 86.2507 181.553 85.888C181.905 85.5147 182.081 85.0453 182.081 84.48C182.081 83.9147 181.905 83.4507 181.553 83.088C181.201 82.7147 180.753 82.528 180.209 82.528H177.921V86.432H180.209ZM187.038 82.48C186.825 82.6933 186.569 82.8 186.27 82.8C185.972 82.8 185.71 82.6933 185.486 82.48C185.273 82.256 185.166 81.9947 185.166 81.696C185.166 81.3973 185.273 81.1413 185.486 80.928C185.7 80.704 185.961 80.592 186.27 80.592C186.58 80.592 186.841 80.704 187.054 80.928C187.268 81.1413 187.374 81.3973 187.374 81.696C187.374 81.9947 187.262 82.256 187.038 82.48ZM185.406 92V84H187.134V92H185.406ZM193.349 83.792C194.266 83.792 195.007 84.0853 195.573 84.672C196.138 85.2587 196.421 86.064 196.421 87.088V92H194.693V87.264C194.693 86.6667 194.533 86.208 194.213 85.888C193.893 85.568 193.455 85.408 192.901 85.408C192.293 85.408 191.802 85.6 191.429 85.984C191.055 86.3573 190.869 86.9333 190.869 87.712V92H189.141V84H190.869V85.024C191.391 84.2027 192.218 83.792 193.349 83.792ZM205.353 92H203.289L200.009 88.304V92H198.281V80.8H200.009V87.536L203.113 84H205.225L201.705 87.92L205.353 92ZM209.715 92.208C208.638 92.208 207.721 91.9627 206.963 91.472C206.217 90.9813 205.694 90.3093 205.395 89.456L206.979 88.528C207.427 89.7867 208.355 90.416 209.763 90.416C210.457 90.416 210.974 90.2827 211.315 90.016C211.667 89.7387 211.843 89.3813 211.843 88.944C211.843 88.4853 211.657 88.1387 211.283 87.904C210.91 87.6587 210.249 87.392 209.299 87.104C208.766 86.944 208.334 86.7947 208.003 86.656C207.673 86.5173 207.321 86.3253 206.947 86.08C206.585 85.824 206.313 85.5093 206.131 85.136C205.95 84.7627 205.859 84.3253 205.859 83.824C205.859 82.832 206.211 82.048 206.915 81.472C207.619 80.8853 208.467 80.592 209.459 80.592C210.355 80.592 211.139 80.8107 211.811 81.248C212.483 81.6853 213.001 82.288 213.363 83.056L211.811 83.952C211.342 82.9067 210.558 82.384 209.459 82.384C208.926 82.384 208.499 82.512 208.179 82.768C207.859 83.0133 207.699 83.3493 207.699 83.776C207.699 84.192 207.859 84.5227 208.179 84.768C208.51 85.0027 209.102 85.2533 209.955 85.52C210.382 85.6587 210.691 85.7653 210.883 85.84C211.086 85.904 211.363 86.0107 211.715 86.16C212.078 86.3093 212.35 86.4587 212.531 86.608C212.713 86.7573 212.905 86.944 213.107 87.168C213.321 87.392 213.47 87.648 213.555 87.936C213.641 88.224 213.683 88.5493 213.683 88.912C213.683 89.9253 213.315 90.7307 212.579 91.328C211.854 91.9147 210.899 92.208 209.715 92.208ZM221.711 84H223.439V92H221.711V90.848C221.061 91.7547 220.127 92.208 218.911 92.208C217.813 92.208 216.874 91.8027 216.095 90.992C215.317 90.1707 214.927 89.1733 214.927 88C214.927 86.816 215.317 85.8187 216.095 85.008C216.874 84.1973 217.813 83.792 218.911 83.792C220.127 83.792 221.061 84.24 221.711 85.136V84ZM217.375 89.84C217.855 90.32 218.458 90.56 219.183 90.56C219.909 90.56 220.511 90.32 220.991 89.84C221.471 89.3493 221.711 88.736 221.711 88C221.711 87.264 221.471 86.656 220.991 86.176C220.511 85.6853 219.909 85.44 219.183 85.44C218.458 85.44 217.855 85.6853 217.375 86.176C216.895 86.656 216.655 87.264 216.655 88C216.655 88.736 216.895 89.3493 217.375 89.84ZM225.453 92V80.32H227.181V92H225.453ZM230.548 88.736C230.676 89.344 230.969 89.8133 231.428 90.144C231.886 90.464 232.446 90.624 233.108 90.624C234.025 90.624 234.713 90.2933 235.172 89.632L236.596 90.464C235.806 91.6267 234.638 92.208 233.092 92.208C231.79 92.208 230.74 91.8133 229.94 91.024C229.14 90.224 228.74 89.216 228.74 88C228.74 86.8053 229.134 85.808 229.924 85.008C230.713 84.1973 231.726 83.792 232.964 83.792C234.137 83.792 235.097 84.2027 235.844 85.024C236.601 85.8453 236.98 86.8427 236.98 88.016C236.98 88.1973 236.958 88.4373 236.916 88.736H230.548ZM230.532 87.328H235.236C235.118 86.6773 234.846 86.1867 234.42 85.856C234.004 85.5253 233.513 85.36 232.948 85.36C232.308 85.36 231.774 85.536 231.348 85.888C230.921 86.24 230.649 86.72 230.532 87.328Z" fill="white"/>
<path fill-rule="evenodd" clip-rule="evenodd" d="M344.5 127C371.286 127 393 105.286 393 78.5C393 51.7142 371.286 30 344.5 30C317.714 30 296 51.7142 296 78.5C296 105.286 317.714 127 344.5 127ZM374.952 64.1244L372.78 69.7719C372.681 70.0283 372.319 70.0283 372.22 69.7719L370.048 64.1244C370.017 64.0452 369.955 63.9825 369.876 63.9521L364.228 61.7799C363.972 61.6813 363.972 61.3186 364.228 61.2199L369.876 59.0478C369.955 59.0173 370.017 58.9547 370.048 58.8755L372.22 53.228C372.319 52.9715 372.681 52.9715 372.78 53.228L374.952 58.8755C374.983 58.9547 375.045 59.0173 375.124 59.0478L380.772 61.2199C381.028 61.3186 381.028 61.6813 380.772 61.7799L375.124 63.9521C375.045 63.9825 374.983 64.0452 374.952 64.1244ZM323.25 58.9999C322.56 58.9999 322 59.5596 322 60.2499C322 60.9403 322.56 61.4999 323.25 61.4999H334.75C335.44 61.4999 336 60.9403 336 60.2499C336 59.5596 335.44 58.9999 334.75 58.9999H323.25ZM322 78.9999C322 82.8659 318.866 85.9999 315 85.9999C311.134 85.9999 308 82.8659 308 78.9999C308 75.1339 311.134 71.9999 315 71.9999C318.866 71.9999 322 75.1339 322 78.9999ZM375 78.9999C375 82.8659 371.866 85.9999 368 85.9999C364.134 85.9999 361 82.8659 361 78.9999C361 75.1339 364.134 71.9999 368 71.9999C371.866 71.9999 375 75.1339 375 78.9999ZM347 60.2499C347 59.5596 347.56 58.9999 348.25 58.9999H359.75C360.44 58.9999 361 59.5596 361 60.2499C361 60.9403 360.44 61.4999 359.75 61.4999H348.25C347.56 61.4999 347 60.9403 347 60.2499ZM330.628 90.5041C333.086 93.8375 337.04 95.9999 341.5 95.9999C345.96 95.9999 349.914 93.8375 352.372 90.5041C353.088 89.5338 354.457 89.1838 355.438 89.8845C356.248 90.4626 356.507 91.5622 355.944 92.3826C352.791 96.9824 347.498 99.9999 341.5 99.9999C335.502 99.9999 330.209 96.9824 327.056 92.3826C326.493 91.5622 326.752 90.4626 327.562 89.8845C328.543 89.1838 329.912 89.5338 330.628 90.5041ZM325.5 68.2499C325.5 66.7312 326.731 65.4999 328.25 65.4999C329.769 65.4999 331 66.7312 331 68.2499V78.75C331 80.2687 329.769 81.4999 328.25 81.4999C326.731 81.4999 325.5 80.2687 325.5 78.75V68.2499ZM354.75 65.4999C353.231 65.4999 352 66.7312 352 68.2499V78.75C352 80.2687 353.231 81.4999 354.75 81.4999C356.269 81.4999 357.5 80.2687 357.5 78.75V68.2499C357.5 66.7312 356.269 65.4999 354.75 65.4999Z" fill="url(#paint2_linear_801:4036)"/>
</g>
<defs>
<filter id="filter0_b_801:4036" x="-27.2468" y="-32" width="482.242" height="218" filterUnits="userSpaceOnUse" color-interpolation-filters="sRGB">
<feFlood flood-opacity="0" result="BackgroundImageFix"/>
<feGaussianBlur in="BackgroundImage" stdDeviation="16"/>
<feComposite in2="SourceAlpha" operator="in" result="effect1_backgroundBlur_801:4036"/>
<feBlend mode="normal" in="SourceGraphic" in2="effect1_backgroundBlur_801:4036" result="shape"/>
</filter>
<linearGradient id="paint0_linear_801:4036" x1="473" y1="154" x2="-9.95421" y2="0.0324176" gradientUnits="userSpaceOnUse">
<stop stop-color="#6FDCFF"/>
<stop offset="1" stop-color="#FF248D" stop-opacity="0"/>
</linearGradient>
<linearGradient id="paint1_linear_801:4036" x1="25.552" y1="77" x2="455.002" y2="77" gradientUnits="userSpaceOnUse">
<stop stop-color="#6FDCFF" stop-opacity="0.26"/>
<stop offset="1" stop-color="#6F86FF" stop-opacity="0"/>
</linearGradient>
<linearGradient id="paint2_linear_801:4036" x1="393" y1="98.5361" x2="294.18" y2="98.5361" gradientUnits="userSpaceOnUse">
<stop stop-color="white" stop-opacity="0"/>
<stop offset="1" stop-color="#6BD5F8"/>
</linearGradient>
</defs>
</svg>
