<svg width="465" height="154" viewBox="0 0 465 154" fill="none" xmlns="http://www.w3.org/2000/svg">
<g filter="url(#filter0_b_801:4031)">
<path d="M445.238 0C455.166 0 462.355 9.4716 459.685 19.034L425.062 143.034C423.252 149.517 417.345 154 410.615 154L54.3852 154C47.6546 154 41.7479 149.517 39.9378 143.034L5.31466 19.034C2.64465 9.47159 9.83387 0 19.762 0L445.238 0Z" fill="#00001E"/>
<path d="M445.238 0C455.166 0 462.355 9.4716 459.685 19.034L425.062 143.034C423.252 149.517 417.345 154 410.615 154L54.3852 154C47.6546 154 41.7479 149.517 39.9378 143.034L5.31466 19.034C2.64465 9.47159 9.83387 0 19.762 0L445.238 0Z" fill="url(#paint0_linear_801:4031)" fill-opacity="0.3"/>
<path d="M445.238 0.5C454.835 0.5 461.785 9.65588 459.204 18.8995L424.58 142.9C422.831 149.166 417.121 153.5 410.615 153.5L54.3852 153.5C47.8789 153.5 42.1692 149.166 40.4194 142.9L5.79624 18.8995C3.21523 9.65587 10.1648 0.5 19.762 0.5L445.238 0.5Z" stroke="url(#paint1_linear_801:4031)"/>
</g>
<path fill-rule="evenodd" clip-rule="evenodd" d="M300.4 58.3727C334.225 48.6597 356.766 42.2875 368.025 39.2561C400.169 30.6008 406.792 29.2313 410.933 29.6916C411.844 29.7929 413.846 30.2782 415.024 31.5072C416.018 32.545 416.166 33.7928 416.202 34.6598C416.237 35.5268 416.167 37.4824 415.826 38.9734C411.924 55.9913 399.315 96.8844 393.158 115.714C390.553 123.682 387.164 126.029 384.194 125.919C377.74 125.679 373.519 120.29 367.865 115.476C359.019 107.943 354.068 103.325 345.486 95.9809C335.567 87.493 343.105 84.5024 350.116 78.9307C351.951 77.4725 383.363 55.7342 384.207 53.5037C384.313 53.2248 384.516 52.1604 383.948 51.5112C383.379 50.8621 382.406 50.9336 381.702 50.9994C380.704 51.0928 363.94 59.2291 331.409 75.4084C326.636 77.8297 322.476 78.7729 318.929 78.2381C315.018 77.6485 307.75 74.5601 302.378 72.0286C295.79 68.9236 290.476 67.046 291.444 63.34C291.948 61.4096 294.933 59.7539 300.4 58.3727Z" fill="url(#paint2_linear_801:4031)"/>
<path d="M114.637 63.192C112.941 63.192 111.538 62.632 110.429 61.512C109.32 60.392 108.765 59.0213 108.765 57.4C108.765 55.7787 109.32 54.408 110.429 53.288C111.538 52.168 112.941 51.608 114.637 51.608C115.672 51.608 116.621 51.8587 117.485 52.36C118.349 52.8507 119.016 53.5173 119.485 54.36L118.493 54.936C118.141 54.2533 117.618 53.7093 116.925 53.304C116.232 52.8987 115.469 52.696 114.637 52.696C113.24 52.696 112.098 53.1493 111.213 54.056C110.328 54.9627 109.885 56.0773 109.885 57.4C109.885 58.7227 110.328 59.8373 111.213 60.744C112.098 61.6507 113.24 62.104 114.637 62.104C115.469 62.104 116.232 61.9013 116.925 61.496C117.618 61.0907 118.141 60.5467 118.493 59.864L119.485 60.424C119.026 61.2667 118.36 61.9387 117.485 62.44C116.621 62.9413 115.672 63.192 114.637 63.192ZM127.793 61.992C126.982 62.792 125.99 63.192 124.817 63.192C123.643 63.192 122.646 62.792 121.825 61.992C121.014 61.1813 120.609 60.184 120.609 59C120.609 57.816 121.014 56.824 121.825 56.024C122.646 55.2133 123.643 54.808 124.817 54.808C125.99 54.808 126.982 55.2133 127.793 56.024C128.614 56.824 129.025 57.816 129.025 59C129.025 60.184 128.614 61.1813 127.793 61.992ZM122.577 61.256C123.185 61.864 123.931 62.168 124.817 62.168C125.702 62.168 126.449 61.864 127.057 61.256C127.665 60.6373 127.969 59.8853 127.969 59C127.969 58.1147 127.665 57.368 127.057 56.76C126.449 56.1413 125.702 55.832 124.817 55.832C123.931 55.832 123.185 56.1413 122.577 56.76C121.969 57.368 121.665 58.1147 121.665 59C121.665 59.8853 121.969 60.6373 122.577 61.256ZM134.536 54.808C135.507 54.808 136.269 55.1067 136.824 55.704C137.389 56.2907 137.672 57.0853 137.672 58.088V63H136.616V58.088C136.616 57.3733 136.424 56.8187 136.04 56.424C135.667 56.0293 135.133 55.832 134.44 55.832C133.672 55.832 133.048 56.0773 132.568 56.568C132.088 57.048 131.848 57.7947 131.848 58.808V63H130.792V55H131.848V56.248C132.445 55.288 133.341 54.808 134.536 54.808ZM143.458 54.808C144.428 54.808 145.191 55.1067 145.746 55.704C146.311 56.2907 146.594 57.0853 146.594 58.088V63H145.538V58.088C145.538 57.3733 145.346 56.8187 144.962 56.424C144.588 56.0293 144.055 55.832 143.362 55.832C142.594 55.832 141.97 56.0773 141.49 56.568C141.01 57.048 140.77 57.7947 140.77 58.808V63H139.714V55H140.77V56.248C141.367 55.288 142.263 54.808 143.458 54.808ZM152.332 54.808C153.516 54.808 154.47 55.2293 155.196 56.072C155.932 56.904 156.3 57.8907 156.3 59.032C156.3 59.1493 156.289 59.3147 156.268 59.528H149.244C149.35 60.3387 149.692 60.984 150.268 61.464C150.854 61.9333 151.574 62.168 152.428 62.168C153.036 62.168 153.558 62.0453 153.996 61.8C154.444 61.544 154.78 61.2133 155.004 60.808L155.932 61.352C155.58 61.9173 155.1 62.3653 154.492 62.696C153.884 63.0267 153.19 63.192 152.412 63.192C151.153 63.192 150.129 62.7973 149.34 62.008C148.55 61.2187 148.156 60.216 148.156 59C148.156 57.8053 148.545 56.808 149.324 56.008C150.102 55.208 151.105 54.808 152.332 54.808ZM152.332 55.832C151.5 55.832 150.801 56.0827 150.236 56.584C149.681 57.0747 149.35 57.7147 149.244 58.504H155.212C155.105 57.6613 154.78 57.0053 154.236 56.536C153.692 56.0667 153.057 55.832 152.332 55.832ZM161.707 63.192C160.502 63.192 159.499 62.792 158.699 61.992C157.899 61.1813 157.499 60.184 157.499 59C157.499 57.816 157.899 56.824 158.699 56.024C159.499 55.2133 160.502 54.808 161.707 54.808C162.497 54.808 163.206 55 163.835 55.384C164.465 55.7573 164.923 56.264 165.211 56.904L164.347 57.4C164.134 56.92 163.787 56.5413 163.307 56.264C162.838 55.976 162.305 55.832 161.707 55.832C160.822 55.832 160.075 56.1413 159.467 56.76C158.859 57.368 158.555 58.1147 158.555 59C158.555 59.8853 158.859 60.6373 159.467 61.256C160.075 61.864 160.822 62.168 161.707 62.168C162.305 62.168 162.838 62.0293 163.307 61.752C163.777 61.464 164.145 61.08 164.411 60.6L165.291 61.112C164.961 61.752 164.475 62.2587 163.835 62.632C163.195 63.0053 162.486 63.192 161.707 63.192ZM171.048 56.024H168.744V60.872C168.744 61.3093 168.829 61.624 169 61.816C169.17 61.9973 169.426 62.0933 169.768 62.104C170.109 62.104 170.536 62.0933 171.048 62.072V63C169.928 63.1707 169.085 63.0907 168.52 62.76C167.965 62.4293 167.688 61.8 167.688 60.872V56.024H166.008V55H167.688V53.08L168.744 52.76V55H171.048V56.024ZM186.44 55H187.528L185.064 63H183.911L181.848 56.552L179.784 63H178.632L176.168 55H177.256L179.224 61.64L181.32 55H182.376L184.472 61.64L186.44 55ZM190.192 53.08C190.043 53.2293 189.861 53.304 189.648 53.304C189.435 53.304 189.253 53.2293 189.104 53.08C188.955 52.9307 188.88 52.7493 188.88 52.536C188.88 52.3227 188.955 52.1413 189.104 51.992C189.253 51.8427 189.435 51.768 189.648 51.768C189.861 51.768 190.043 51.8427 190.192 51.992C190.341 52.1413 190.416 52.3227 190.416 52.536C190.416 52.7493 190.341 52.9307 190.192 53.08ZM189.12 63V55H190.176V63H189.12ZM196.657 56.024H194.353V60.872C194.353 61.3093 194.438 61.624 194.609 61.816C194.78 61.9973 195.036 62.0933 195.377 62.104C195.718 62.104 196.145 62.0933 196.657 62.072V63C195.537 63.1707 194.694 63.0907 194.129 62.76C193.574 62.4293 193.297 61.8 193.297 60.872V56.024H191.617V55H193.297V53.08L194.353 52.76V55H196.657V56.024ZM202.161 54.808C203.132 54.808 203.894 55.1067 204.449 55.704C205.014 56.2907 205.297 57.0853 205.297 58.088V63H204.241V58.088C204.241 57.3733 204.049 56.8187 203.665 56.424C203.292 56.0293 202.758 55.832 202.065 55.832C201.297 55.832 200.673 56.0773 200.193 56.568C199.713 57.048 199.473 57.7947 199.473 58.808V63H198.417V51.8H199.473V56.248C200.07 55.288 200.966 54.808 202.161 54.808ZM218.043 61.992C217.232 62.792 216.24 63.192 215.067 63.192C213.893 63.192 212.896 62.792 212.075 61.992C211.264 61.1813 210.859 60.184 210.859 59C210.859 57.816 211.264 56.824 212.075 56.024C212.896 55.2133 213.893 54.808 215.067 54.808C216.24 54.808 217.232 55.2133 218.043 56.024C218.864 56.824 219.275 57.816 219.275 59C219.275 60.184 218.864 61.1813 218.043 61.992ZM212.827 61.256C213.435 61.864 214.181 62.168 215.067 62.168C215.952 62.168 216.699 61.864 217.307 61.256C217.915 60.6373 218.219 59.8853 218.219 59C218.219 58.1147 217.915 57.368 217.307 56.76C216.699 56.1413 215.952 55.832 215.067 55.832C214.181 55.832 213.435 56.1413 212.827 56.76C212.219 57.368 211.915 58.1147 211.915 59C211.915 59.8853 212.219 60.6373 212.827 61.256ZM226.674 55H227.73V63H226.674V61.752C226.077 62.712 225.181 63.192 223.986 63.192C223.015 63.192 222.247 62.8987 221.682 62.312C221.127 61.7147 220.85 60.9147 220.85 59.912V55H221.906V59.912C221.906 60.6267 222.093 61.1813 222.466 61.576C222.85 61.9707 223.389 62.168 224.082 62.168C224.85 62.168 225.474 61.928 225.954 61.448C226.434 60.9573 226.674 60.2053 226.674 59.192V55ZM231.02 56.328C231.51 55.3573 232.353 54.872 233.548 54.872V55.896C232.822 55.896 232.22 56.1093 231.74 56.536C231.26 56.9627 231.02 57.6347 231.02 58.552V63H229.964V55H231.02V56.328ZM124.02 82.192C122.815 82.192 121.812 81.792 121.012 80.992C120.212 80.1813 119.812 79.184 119.812 78C119.812 76.816 120.212 75.824 121.012 75.024C121.812 74.2133 122.815 73.808 124.02 73.808C124.809 73.808 125.519 74 126.148 74.384C126.777 74.7573 127.236 75.264 127.524 75.904L126.66 76.4C126.447 75.92 126.1 75.5413 125.62 75.264C125.151 74.976 124.617 74.832 124.02 74.832C123.135 74.832 122.388 75.1413 121.78 75.76C121.172 76.368 120.868 77.1147 120.868 78C120.868 78.8853 121.172 79.6373 121.78 80.256C122.388 80.864 123.135 81.168 124.02 81.168C124.617 81.168 125.151 81.0293 125.62 80.752C126.089 80.464 126.457 80.08 126.724 79.6L127.604 80.112C127.273 80.752 126.788 81.2587 126.148 81.632C125.508 82.0053 124.799 82.192 124.02 82.192ZM135.746 80.992C134.935 81.792 133.943 82.192 132.77 82.192C131.597 82.192 130.599 81.792 129.778 80.992C128.967 80.1813 128.562 79.184 128.562 78C128.562 76.816 128.967 75.824 129.778 75.024C130.599 74.2133 131.597 73.808 132.77 73.808C133.943 73.808 134.935 74.2133 135.746 75.024C136.567 75.824 136.978 76.816 136.978 78C136.978 79.184 136.567 80.1813 135.746 80.992ZM130.53 80.256C131.138 80.864 131.885 81.168 132.77 81.168C133.655 81.168 134.402 80.864 135.01 80.256C135.618 79.6373 135.922 78.8853 135.922 78C135.922 77.1147 135.618 76.368 135.01 75.76C134.402 75.1413 133.655 74.832 132.77 74.832C131.885 74.832 131.138 75.1413 130.53 75.76C129.922 76.368 129.618 77.1147 129.618 78C129.618 78.8853 129.922 79.6373 130.53 80.256ZM147.273 73.808C148.169 73.808 148.889 74.096 149.433 74.672C149.988 75.248 150.265 76.0267 150.265 77.008V82H149.209V77.008C149.209 76.3147 149.028 75.7813 148.665 75.408C148.313 75.024 147.844 74.832 147.257 74.832C146.596 74.832 146.057 75.056 145.641 75.504C145.236 75.9413 145.033 76.6293 145.033 77.568V82H143.977V77.008C143.977 76.304 143.806 75.7653 143.465 75.392C143.134 75.0187 142.681 74.832 142.105 74.832C141.465 74.832 140.921 75.056 140.473 75.504C140.025 75.952 139.801 76.64 139.801 77.568V82H138.745V74H139.801V75.168C140.377 74.2613 141.193 73.808 142.249 73.808C143.401 73.808 144.212 74.2933 144.681 75.264C145.257 74.2933 146.121 73.808 147.273 73.808ZM160.836 73.808C161.732 73.808 162.452 74.096 162.996 74.672C163.55 75.248 163.828 76.0267 163.828 77.008V82H162.772V77.008C162.772 76.3147 162.59 75.7813 162.228 75.408C161.876 75.024 161.406 74.832 160.82 74.832C160.158 74.832 159.62 75.056 159.204 75.504C158.798 75.9413 158.596 76.6293 158.596 77.568V82H157.54V77.008C157.54 76.304 157.369 75.7653 157.028 75.392C156.697 75.0187 156.244 74.832 155.668 74.832C155.028 74.832 154.484 75.056 154.036 75.504C153.588 75.952 153.364 76.64 153.364 77.568V82H152.308V74H153.364V75.168C153.94 74.2613 154.756 73.808 155.812 73.808C156.964 73.808 157.774 74.2933 158.244 75.264C158.82 74.2933 159.684 73.808 160.836 73.808ZM171.502 74H172.558V82H171.502V80.752C170.905 81.712 170.009 82.192 168.814 82.192C167.843 82.192 167.075 81.8987 166.51 81.312C165.955 80.7147 165.678 79.9147 165.678 78.912V74H166.734V78.912C166.734 79.6267 166.921 80.1813 167.294 80.576C167.678 80.9707 168.217 81.168 168.91 81.168C169.678 81.168 170.302 80.928 170.782 80.448C171.262 79.9573 171.502 79.2053 171.502 78.192V74ZM178.536 73.808C179.507 73.808 180.269 74.1067 180.824 74.704C181.389 75.2907 181.672 76.0853 181.672 77.088V82H180.616V77.088C180.616 76.3733 180.424 75.8187 180.04 75.424C179.667 75.0293 179.133 74.832 178.44 74.832C177.672 74.832 177.048 75.0773 176.568 75.568C176.088 76.048 175.848 76.7947 175.848 77.808V82H174.792V74H175.848V75.248C176.445 74.288 177.341 73.808 178.536 73.808ZM184.786 72.08C184.636 72.2293 184.455 72.304 184.242 72.304C184.028 72.304 183.847 72.2293 183.698 72.08C183.548 71.9307 183.474 71.7493 183.474 71.536C183.474 71.3227 183.548 71.1413 183.698 70.992C183.847 70.8427 184.028 70.768 184.242 70.768C184.455 70.768 184.636 70.8427 184.786 70.992C184.935 71.1413 185.01 71.3227 185.01 71.536C185.01 71.7493 184.935 71.9307 184.786 72.08ZM183.714 82V74H184.77V82H183.714ZM191.251 75.024H188.947V79.872C188.947 80.3093 189.032 80.624 189.203 80.816C189.373 80.9973 189.629 81.0933 189.971 81.104C190.312 81.104 190.739 81.0933 191.251 81.072V82C190.131 82.1707 189.288 82.0907 188.723 81.76C188.168 81.4293 187.891 80.8 187.891 79.872V75.024H186.211V74H187.891V72.08L188.947 71.76V74H191.251V75.024ZM198.927 74H200.047L196.623 82.736C196.314 83.5253 195.871 84.144 195.295 84.592C194.73 85.0507 194.095 85.2533 193.391 85.2V84.208C194.351 84.3147 195.082 83.76 195.583 82.544L195.791 82.048L192.207 74H193.327L196.335 80.704L198.927 74ZM212.027 80.992C211.216 81.792 210.224 82.192 209.051 82.192C207.878 82.192 206.88 81.792 206.059 80.992C205.248 80.1813 204.843 79.184 204.843 78C204.843 76.816 205.248 75.824 206.059 75.024C206.88 74.2133 207.878 73.808 209.051 73.808C210.224 73.808 211.216 74.2133 212.027 75.024C212.848 75.824 213.259 76.816 213.259 78C213.259 79.184 212.848 80.1813 212.027 80.992ZM206.811 80.256C207.419 80.864 208.166 81.168 209.051 81.168C209.936 81.168 210.683 80.864 211.291 80.256C211.899 79.6373 212.203 78.8853 212.203 78C212.203 77.1147 211.899 76.368 211.291 75.76C210.683 75.1413 209.936 74.832 209.051 74.832C208.166 74.832 207.419 75.1413 206.811 75.76C206.203 76.368 205.899 77.1147 205.899 78C205.899 78.8853 206.203 79.6373 206.811 80.256ZM218.77 73.808C219.741 73.808 220.504 74.1067 221.058 74.704C221.624 75.2907 221.906 76.0853 221.906 77.088V82H220.85V77.088C220.85 76.3733 220.658 75.8187 220.274 75.424C219.901 75.0293 219.368 74.832 218.674 74.832C217.906 74.832 217.282 75.0773 216.802 75.568C216.322 76.048 216.082 76.7947 216.082 77.808V82H215.026V74H216.082V75.248C216.68 74.288 217.576 73.808 218.77 73.808ZM145.213 89.8V91.56H142.061V101H140.221V91.56H137.053V89.8H145.213ZM146.384 97.736C146.512 98.344 146.805 98.8133 147.264 99.144C147.722 99.464 148.282 99.624 148.944 99.624C149.861 99.624 150.549 99.2933 151.008 98.632L152.432 99.464C151.642 100.627 150.474 101.208 148.928 101.208C147.626 101.208 146.576 100.813 145.776 100.024C144.976 99.224 144.576 98.216 144.576 97C144.576 95.8053 144.97 94.808 145.76 94.008C146.549 93.1973 147.562 92.792 148.8 92.792C149.973 92.792 150.933 93.2027 151.68 94.024C152.437 94.8453 152.816 95.8427 152.816 97.016C152.816 97.1973 152.794 97.4373 152.752 97.736H146.384ZM146.368 96.328H151.072C150.954 95.6773 150.682 95.1867 150.256 94.856C149.84 94.5253 149.349 94.36 148.784 94.36C148.144 94.36 147.61 94.536 147.184 94.888C146.757 95.24 146.485 95.72 146.368 96.328ZM154.336 101V89.32H156.064V101H154.336ZM159.431 97.736C159.559 98.344 159.852 98.8133 160.311 99.144C160.769 99.464 161.329 99.624 161.991 99.624C162.908 99.624 163.596 99.2933 164.055 98.632L165.479 99.464C164.689 100.627 163.521 101.208 161.975 101.208C160.673 101.208 159.623 100.813 158.823 100.024C158.023 99.224 157.623 98.216 157.623 97C157.623 95.8053 158.017 94.808 158.807 94.008C159.596 93.1973 160.609 92.792 161.847 92.792C163.02 92.792 163.98 93.2027 164.727 94.024C165.484 94.8453 165.863 95.8427 165.863 97.016C165.863 97.1973 165.841 97.4373 165.799 97.736H159.431ZM159.414 96.328H164.119C164.001 95.6773 163.729 95.1867 163.303 94.856C162.887 94.5253 162.396 94.36 161.831 94.36C161.191 94.36 160.657 94.536 160.231 94.888C159.804 95.24 159.532 95.72 159.414 96.328ZM173.704 93H175.4V100.632C175.4 101.848 175 102.781 174.2 103.432C173.4 104.083 172.429 104.408 171.288 104.408C169.443 104.408 168.179 103.763 167.496 102.472L168.984 101.608C169.4 102.429 170.179 102.84 171.32 102.84C172.067 102.84 172.648 102.643 173.064 102.248C173.491 101.864 173.704 101.325 173.704 100.632V99.656C173.053 100.584 172.125 101.048 170.92 101.048C169.789 101.048 168.835 100.648 168.056 99.848C167.277 99.0373 166.888 98.0613 166.888 96.92C166.888 95.7787 167.277 94.808 168.056 94.008C168.835 93.1973 169.789 92.792 170.92 92.792C172.125 92.792 173.053 93.256 173.704 94.184V93ZM169.336 98.712C169.827 99.192 170.435 99.432 171.16 99.432C171.885 99.432 172.488 99.192 172.968 98.712C173.459 98.232 173.704 97.6347 173.704 96.92C173.704 96.2053 173.459 95.608 172.968 95.128C172.488 94.648 171.885 94.408 171.16 94.408C170.435 94.408 169.827 94.648 169.336 95.128C168.856 95.608 168.616 96.2053 168.616 96.92C168.616 97.6347 168.856 98.232 169.336 98.712ZM179.142 94.344C179.58 93.352 180.401 92.856 181.606 92.856V94.728C180.945 94.6853 180.369 94.8453 179.878 95.208C179.388 95.56 179.142 96.1467 179.142 96.968V101H177.414V93H179.142V94.344ZM188.844 93H190.572V101H188.844V99.848C188.193 100.755 187.26 101.208 186.044 101.208C184.945 101.208 184.007 100.803 183.228 99.992C182.449 99.1707 182.06 98.1733 182.06 97C182.06 95.816 182.449 94.8187 183.228 94.008C184.007 93.1973 184.945 92.792 186.044 92.792C187.26 92.792 188.193 93.24 188.844 94.136V93ZM184.508 98.84C184.988 99.32 185.591 99.56 186.316 99.56C187.041 99.56 187.644 99.32 188.124 98.84C188.604 98.3493 188.844 97.736 188.844 97C188.844 96.264 188.604 95.656 188.124 95.176C187.644 94.6853 187.041 94.44 186.316 94.44C185.591 94.44 184.988 94.6853 184.508 95.176C184.028 95.656 183.788 96.264 183.788 97C183.788 97.736 184.028 98.3493 184.508 98.84ZM201.322 92.792C202.229 92.792 202.959 93.0853 203.514 93.672C204.069 94.2587 204.346 95.048 204.346 96.04V101H202.618V96.152C202.618 95.5973 202.479 95.1707 202.202 94.872C201.925 94.5627 201.546 94.408 201.066 94.408C200.533 94.408 200.106 94.584 199.786 94.936C199.477 95.288 199.322 95.816 199.322 96.52V101H197.594V96.152C197.594 95.5973 197.461 95.1707 197.194 94.872C196.938 94.5627 196.57 94.408 196.09 94.408C195.567 94.408 195.141 94.5893 194.81 94.952C194.479 95.304 194.314 95.8267 194.314 96.52V101H192.586V93H194.314V93.96C194.826 93.1813 195.589 92.792 196.602 92.792C197.626 92.792 198.383 93.2133 198.874 94.056C199.407 93.2133 200.223 92.792 201.322 92.792Z" fill="white"/>
<defs>
<filter id="filter0_b_801:4031" x="-27.2468" y="-32" width="519.494" height="218" filterUnits="userSpaceOnUse" color-interpolation-filters="sRGB">
<feFlood flood-opacity="0" result="BackgroundImageFix"/>
<feGaussianBlur in="BackgroundImage" stdDeviation="16"/>
<feComposite in2="SourceAlpha" operator="in" result="effect1_backgroundBlur_801:4031"/>
<feBlend mode="normal" in="SourceGraphic" in2="effect1_backgroundBlur_801:4031" result="shape"/>
</filter>
<linearGradient id="paint0_linear_801:4031" x1="464" y1="-6.5597e-05" x2="-18.9542" y2="153.968" gradientUnits="userSpaceOnUse">
<stop stop-color="#6FDCFF"/>
<stop offset="1" stop-color="#FF248D" stop-opacity="0"/>
</linearGradient>
<linearGradient id="paint1_linear_801:4031" x1="16.552" y1="77" x2="446.002" y2="77" gradientUnits="userSpaceOnUse">
<stop stop-color="#6FDCFF" stop-opacity="0.26"/>
<stop offset="1" stop-color="#6F86FF" stop-opacity="0"/>
</linearGradient>
<linearGradient id="paint2_linear_801:4031" x1="416.486" y1="29.8285" x2="273.471" y2="122.568" gradientUnits="userSpaceOnUse">
<stop stop-color="#6FDCFF"/>
<stop offset="1" stop-color="#6FDCFF" stop-opacity="0"/>
</linearGradient>
</defs>
</svg>
