<svg width="466" height="154" viewBox="0 0 466 154" fill="none" xmlns="http://www.w3.org/2000/svg">
<g filter="url(#filter0_b_801:4059)">
<path d="M4.14132 14.8317C2.06078 7.38047 7.66277 2.84371e-06 15.399 2.79572e-06L450.601 9.5542e-08C458.337 4.75432e-08 463.939 7.38047 461.859 14.8317L425.386 145.455C423.975 150.507 419.373 154 414.128 154L51.8718 154C46.6271 154 42.0245 150.507 40.6141 145.455L4.14132 14.8317Z" fill="#00001E"/>
<path d="M4.14132 14.8317C2.06078 7.38047 7.66277 2.84371e-06 15.399 2.79572e-06L450.601 9.5542e-08C458.337 4.75432e-08 463.939 7.38047 461.859 14.8317L425.386 145.455C423.975 150.507 419.373 154 414.128 154L51.8718 154C46.6271 154 42.0245 150.507 40.6141 145.455L4.14132 14.8317Z" fill="url(#paint0_linear_801:4059)"/>
<path d="M4.6229 14.6972C2.63136 7.56475 7.99371 0.500003 15.399 0.500003L450.601 0.5C458.006 0.5 463.369 7.56475 461.377 14.6972L424.904 145.321C423.554 150.156 419.149 153.5 414.128 153.5L51.8718 153.5C46.8514 153.5 42.4458 150.156 41.0957 145.321L4.6229 14.6972Z" stroke="url(#paint1_linear_801:4059)"/>
</g>
<path d="M81.24 88.12L75.648 70.216H78.672L82.68 83.296L86.784 70.216H89.376L93.504 83.296L97.488 70.216H100.344L94.776 88.12H92.184L88.008 74.92L83.856 88.12H81.24ZM104.376 88V70.216H107.28V77.368H116.688V70.216H119.592V88H116.688V80.248H107.28V88H104.376ZM125.134 88V70.216H128.014V88H125.134ZM138.521 88V73H132.113V70.216H147.857V73H141.449V88H138.521ZM151.727 88V70.216H164.279V73H154.631V77.464H164.039V80.224H154.631V85.264H164.375V88H151.727ZM169.081 88V70.216H177.241C179.577 70.216 181.249 70.688 182.257 71.632C183.281 72.576 183.793 73.992 183.793 75.88C183.793 77.832 183.273 79.328 182.233 80.368C181.209 81.408 179.505 81.928 177.121 81.928H171.913V88H169.081ZM171.913 79.288H177.241C178.489 79.288 179.409 79.04 180.001 78.544C180.593 78.032 180.889 77.192 180.889 76.024C180.889 74.84 180.601 74.016 180.025 73.552C179.449 73.088 178.505 72.856 177.193 72.856H171.913V79.288ZM184.479 88L191.607 70.096H194.583L201.735 88H198.735L197.415 84.592H188.703L187.383 88H184.479ZM189.711 81.904H196.383L193.047 73.576L189.711 81.904ZM205.571 88V70.216H213.731C216.067 70.216 217.739 70.688 218.747 71.632C219.771 72.576 220.283 73.992 220.283 75.88C220.283 77.832 219.763 79.328 218.723 80.368C217.699 81.408 215.995 81.928 213.611 81.928H208.403V88H205.571ZM208.403 79.288H213.731C214.979 79.288 215.899 79.04 216.491 78.544C217.083 78.032 217.379 77.192 217.379 76.024C217.379 74.84 217.091 74.016 216.515 73.552C215.939 73.088 214.995 72.856 213.683 72.856H208.403V79.288ZM224.612 88V70.216H237.164V73H227.516V77.464H236.924V80.224H227.516V85.264H237.26V88H224.612ZM253.199 88L249.479 81.52H244.799V88H241.967V70.216H250.103C252.423 70.216 254.079 70.688 255.071 71.632C256.063 72.56 256.559 73.936 256.559 75.76C256.559 78.8 255.191 80.64 252.455 81.28L256.319 88H253.199ZM244.799 78.856H250.031C251.263 78.856 252.167 78.64 252.743 78.208C253.335 77.776 253.631 77 253.631 75.88C253.631 74.744 253.343 73.96 252.767 73.528C252.191 73.08 251.263 72.856 249.983 72.856H244.799V78.856Z" fill="white"/>
<path d="M309 88V73.921H315.764C317.828 73.921 319.279 74.32 320.115 75.118C320.963 75.916 321.388 77.0877 321.388 78.633C321.388 79.393 321.299 80.0643 321.122 80.647C320.944 81.2297 320.64 81.7617 320.21 82.243C319.792 82.7117 319.196 83.0727 318.424 83.326C317.651 83.5667 316.714 83.687 315.612 83.687H312.04V88H309ZM312.04 81.027H315.745C316.644 81.027 317.29 80.856 317.683 80.514C318.075 80.172 318.272 79.5957 318.272 78.785C318.272 77.949 318.075 77.3727 317.683 77.056C317.303 76.7393 316.644 76.581 315.707 76.581H312.04V81.027Z" fill="url(#paint2_linear_801:4059)"/>
<path d="M324.575 88V73.921H329.629C331.073 73.921 332.264 74.0287 333.201 74.244C334.151 74.4467 334.956 74.814 335.614 75.346C336.286 75.878 336.761 76.6 337.039 77.512C337.331 78.4113 337.476 79.5577 337.476 80.951C337.476 82.319 337.324 83.459 337.02 84.371C336.729 85.2703 336.248 85.9923 335.576 86.537C334.918 87.069 334.107 87.449 333.144 87.677C332.182 87.8923 330.985 88 329.553 88H324.575ZM327.691 85.283H329.724C330.687 85.283 331.466 85.2133 332.061 85.074C332.657 84.922 333.125 84.6623 333.467 84.295C333.809 83.9277 334.037 83.4907 334.151 82.984C334.278 82.4647 334.341 81.787 334.341 80.951C334.341 80.1023 334.284 79.431 334.17 78.937C334.069 78.443 333.847 78.0187 333.505 77.664C333.176 77.2967 332.707 77.0497 332.099 76.923C331.491 76.7837 330.681 76.714 329.667 76.714H327.691V85.283Z" fill="url(#paint3_linear_801:4059)"/>
<path d="M340.652 88V73.921H350.893V76.733H343.768V79.754H350.703V82.528H343.768V88H340.652Z" fill="url(#paint4_linear_801:4059)"/>
<path fill-rule="evenodd" clip-rule="evenodd" d="M390.566 55C390.329 54.4786 389.999 53.9987 389.586 53.5858L364.414 28.4142C364.001 28.0013 363.521 27.671 363 27.4337C362.378 27.1506 361.697 27 361 27H324C321.239 27 319 29.2386 319 32V61H304C300.686 61 298 63.6863 298 67V95C298 98.3137 300.686 101 304 101H319V121C319 123.761 321.239 126 324 126H386C388.761 126 391 123.761 391 121V57C391 56.3033 390.849 55.6221 390.566 55ZM363 32.6569L385.343 55H366C364.343 55 363 53.6569 363 52V32.6569ZM366 59C362.134 59 359 55.866 359 52V31H324C323.448 31 323 31.4477 323 32V61H355C358.314 61 361 63.6863 361 67V95C361 98.3137 358.314 101 355 101H323V121C323 121.552 323.448 122 324 122H386C386.552 122 387 121.552 387 121V59H366ZM302 67C302 65.8954 302.895 65 304 65H355C356.105 65 357 65.8954 357 67V95C357 96.1046 356.105 97 355 97H304C302.895 97 302 96.1046 302 95V67Z" fill="url(#paint5_linear_801:4059)"/>
<defs>
<filter id="filter0_b_801:4059" x="-21.2312" y="-24.9351" width="508.462" height="203.87" filterUnits="userSpaceOnUse" color-interpolation-filters="sRGB">
<feFlood flood-opacity="0" result="BackgroundImageFix"/>
<feGaussianBlur in="BackgroundImage" stdDeviation="12.4675"/>
<feComposite in2="SourceAlpha" operator="in" result="effect1_backgroundBlur_801:4059"/>
<feBlend mode="normal" in="SourceGraphic" in2="effect1_backgroundBlur_801:4059" result="shape"/>
</filter>
<linearGradient id="paint0_linear_801:4059" x1="476" y1="154" x2="70.0642" y2="-0.169365" gradientUnits="userSpaceOnUse">
<stop stop-color="#FF248D" stop-opacity="0.38"/>
<stop offset="1" stop-color="#6FDCFF" stop-opacity="0"/>
</linearGradient>
<linearGradient id="paint1_linear_801:4059" x1="460.582" y1="94.9666" x2="125.273" y2="31.9434" gradientUnits="userSpaceOnUse">
<stop stop-color="#6FDCFF" stop-opacity="0"/>
<stop offset="1" stop-color="#FF248D" stop-opacity="0.38"/>
</linearGradient>
<linearGradient id="paint2_linear_801:4059" x1="391.178" y1="88.05" x2="332.598" y2="113.857" gradientUnits="userSpaceOnUse">
<stop stop-color="#FF248D" stop-opacity="0.31"/>
<stop offset="1" stop-color="#93FFF8"/>
</linearGradient>
<linearGradient id="paint3_linear_801:4059" x1="391.178" y1="88.05" x2="332.598" y2="113.857" gradientUnits="userSpaceOnUse">
<stop stop-color="#FF248D" stop-opacity="0.31"/>
<stop offset="1" stop-color="#93FFF8"/>
</linearGradient>
<linearGradient id="paint4_linear_801:4059" x1="391.178" y1="88.05" x2="332.598" y2="113.857" gradientUnits="userSpaceOnUse">
<stop stop-color="#FF248D" stop-opacity="0.31"/>
<stop offset="1" stop-color="#93FFF8"/>
</linearGradient>
<linearGradient id="paint5_linear_801:4059" x1="391.178" y1="88.05" x2="332.598" y2="113.857" gradientUnits="userSpaceOnUse">
<stop stop-color="#FF248D" stop-opacity="0.31"/>
<stop offset="1" stop-color="#93FFF8"/>
</linearGradient>
</defs>
</svg>
