<svg preserveAspectRatio="xMinYMin meet" width="790" height="490" viewBox="0 0 790 490" fill="none"
     xmlns="http://www.w3.org/2000/svg">
  <path
    d="M700.5 407C700.5 403.41 703.41 400.5 707 400.5H783C786.59 400.5 789.5 403.41 789.5 407V483C789.5 486.59 786.59 489.5 783 489.5H707C703.41 489.5 700.5 486.59 700.5 483V407Z"
    stroke="url(#paint0_linear-banner-desktop)" />
  <path
    d="M600.5 407C600.5 403.41 603.41 400.5 607 400.5H683C686.59 400.5 689.5 403.41 689.5 407V483C689.5 486.59 686.59 489.5 683 489.5H607C603.41 489.5 600.5 486.59 600.5 483V407Z"
    stroke="url(#paint1_linear-banner-desktop)" />
  <path
    d="M500.5 407C500.5 403.41 503.41 400.5 507 400.5H583C586.59 400.5 589.5 403.41 589.5 407V483C589.5 486.59 586.59 489.5 583 489.5H507C503.41 489.5 500.5 486.59 500.5 483V407Z"
    stroke="url(#paint2_linear-banner-desktop)" />
  <path
    d="M400.5 407C400.5 403.41 403.41 400.5 407 400.5H483C486.59 400.5 489.5 403.41 489.5 407V483C489.5 486.59 486.59 489.5 483 489.5H407C403.41 489.5 400.5 486.59 400.5 483V407Z"
    stroke="url(#paint3_linear-banner-desktop)" />
  <path
    d="M300.5 407C300.5 403.41 303.41 400.5 307 400.5H383C386.59 400.5 389.5 403.41 389.5 407V483C389.5 486.59 386.59 489.5 383 489.5H307C303.41 489.5 300.5 486.59 300.5 483V407Z"
    stroke="url(#paint4_linear-banner-desktop)" />
  <path
    d="M200.5 407C200.5 403.41 203.41 400.5 207 400.5H283C286.59 400.5 289.5 403.41 289.5 407V483C289.5 486.59 286.59 489.5 283 489.5H207C203.41 489.5 200.5 486.59 200.5 483V407Z"
    stroke="url(#paint5_linear-banner-desktop)" />
  <path
    d="M100.5 407C100.5 403.41 103.41 400.5 107 400.5H183C186.59 400.5 189.5 403.41 189.5 407V483C189.5 486.59 186.59 489.5 183 489.5H107C103.41 489.5 100.5 486.59 100.5 483V407Z"
    stroke="url(#paint6_linear-banner-desktop)" />
  <path
    d="M0.5 407C0.5 403.41 3.41015 400.5 7 400.5H83C86.5898 400.5 89.5 403.41 89.5 407V483C89.5 486.59 86.5898 489.5 83 489.5H7C3.41015 489.5 0.5 486.59 0.5 483V407Z"
    stroke="url(#paint7_linear-banner-desktop)" />
  <path
    d="M700.5 307C700.5 303.41 703.41 300.5 707 300.5H783C786.59 300.5 789.5 303.41 789.5 307V383C789.5 386.59 786.59 389.5 783 389.5H707C703.41 389.5 700.5 386.59 700.5 383V307Z"
    stroke="url(#paint8_linear-banner-desktop)" />
  <path
    d="M600.5 307C600.5 303.41 603.41 300.5 607 300.5H683C686.59 300.5 689.5 303.41 689.5 307V383C689.5 386.59 686.59 389.5 683 389.5H607C603.41 389.5 600.5 386.59 600.5 383V307Z"
    stroke="url(#paint9_linear-banner-desktop)" />
  <path
    d="M500.5 307C500.5 303.41 503.41 300.5 507 300.5H583C586.59 300.5 589.5 303.41 589.5 307V383C589.5 386.59 586.59 389.5 583 389.5H507C503.41 389.5 500.5 386.59 500.5 383V307Z"
    stroke="url(#paint10_linear-banner-desktop)" />
  <path
    d="M400.5 307C400.5 303.41 403.41 300.5 407 300.5H483C486.59 300.5 489.5 303.41 489.5 307V383C489.5 386.59 486.59 389.5 483 389.5H407C403.41 389.5 400.5 386.59 400.5 383V307Z"
    stroke="url(#paint11_linear-banner-desktop)" />
  <path
    d="M300.5 307C300.5 303.41 303.41 300.5 307 300.5H383C386.59 300.5 389.5 303.41 389.5 307V383C389.5 386.59 386.59 389.5 383 389.5H307C303.41 389.5 300.5 386.59 300.5 383V307Z"
    stroke="url(#paint12_linear-banner-desktop)" />
  <path
    d="M700.5 207C700.5 203.41 703.41 200.5 707 200.5H783C786.59 200.5 789.5 203.41 789.5 207V283C789.5 286.59 786.59 289.5 783 289.5H707C703.41 289.5 700.5 286.59 700.5 283V207Z"
    stroke="url(#paint13_linear-banner-desktop)" />
  <path
    d="M600.5 207C600.5 203.41 603.41 200.5 607 200.5H683C686.59 200.5 689.5 203.41 689.5 207V283C689.5 286.59 686.59 289.5 683 289.5H607C603.41 289.5 600.5 286.59 600.5 283V207Z"
    stroke="url(#paint14_linear-banner-desktop)" />
  <path
    d="M500.5 207C500.5 203.41 503.41 200.5 507 200.5H583C586.59 200.5 589.5 203.41 589.5 207V283C589.5 286.59 586.59 289.5 583 289.5H507C503.41 289.5 500.5 286.59 500.5 283V207Z"
    stroke="url(#paint15_linear-banner-desktop)" />
  <path
    d="M400.5 207C400.5 203.41 403.41 200.5 407 200.5H483C486.59 200.5 489.5 203.41 489.5 207V283C489.5 286.59 486.59 289.5 483 289.5H407C403.41 289.5 400.5 286.59 400.5 283V207Z"
    stroke="url(#paint16_linear-banner-desktop)" />
  <path
    d="M300.5 207C300.5 203.41 303.41 200.5 307 200.5H383C386.59 200.5 389.5 203.41 389.5 207V283C389.5 286.59 386.59 289.5 383 289.5H307C303.41 289.5 300.5 286.59 300.5 283V207Z"
    stroke="url(#paint17_linear-banner-desktop)" />
  <path
    d="M700.5 107C700.5 103.41 703.41 100.5 707 100.5H783C786.59 100.5 789.5 103.41 789.5 107V183C789.5 186.59 786.59 189.5 783 189.5H707C703.41 189.5 700.5 186.59 700.5 183V107Z"
    stroke="url(#paint18_linear-banner-desktop)" />
  <path
    d="M600.5 107C600.5 103.41 603.41 100.5 607 100.5H683C686.59 100.5 689.5 103.41 689.5 107V183C689.5 186.59 686.59 189.5 683 189.5H607C603.41 189.5 600.5 186.59 600.5 183V107Z"
    stroke="url(#paint19_linear-banner-desktop)" />
  <path
    d="M500.5 107C500.5 103.41 503.41 100.5 507 100.5H583C586.59 100.5 589.5 103.41 589.5 107V183C589.5 186.59 586.59 189.5 583 189.5H507C503.41 189.5 500.5 186.59 500.5 183V107Z"
    stroke="url(#paint20_linear-banner-desktop)" />
  <path
    d="M400.5 107C400.5 103.41 403.41 100.5 407 100.5H483C486.59 100.5 489.5 103.41 489.5 107V183C489.5 186.59 486.59 189.5 483 189.5H407C403.41 189.5 400.5 186.59 400.5 183V107Z"
    stroke="url(#paint21_linear-banner-desktop)" />
  <path
    d="M300.5 107C300.5 103.41 303.41 100.5 307 100.5H383C386.59 100.5 389.5 103.41 389.5 107V183C389.5 186.59 386.59 189.5 383 189.5H307C303.41 189.5 300.5 186.59 300.5 183V107Z"
    stroke="url(#paint22_linear-banner-desktop)" />
  <path
    d="M700.5 7C700.5 3.41015 703.41 0.5 707 0.5H783C786.59 0.5 789.5 3.41015 789.5 7V83C789.5 86.5898 786.59 89.5 783 89.5H707C703.41 89.5 700.5 86.5898 700.5 83V7Z"
    stroke="url(#paint23_linear-banner-desktop)" />
  <path
    d="M600.5 7C600.5 3.41015 603.41 0.5 607 0.5H683C686.59 0.5 689.5 3.41015 689.5 7V83C689.5 86.5898 686.59 89.5 683 89.5H607C603.41 89.5 600.5 86.5898 600.5 83V7Z"
    stroke="url(#paint24_linear-banner-desktop)" />
  <path
    d="M500.5 7C500.5 3.41015 503.41 0.5 507 0.5H583C586.59 0.5 589.5 3.41015 589.5 7V83C589.5 86.5898 586.59 89.5 583 89.5H507C503.41 89.5 500.5 86.5898 500.5 83V7Z"
    stroke="url(#paint25_linear-banner-desktop)" />
  <path
    d="M400.5 7C400.5 3.41015 403.41 0.5 407 0.5H483C486.59 0.5 489.5 3.41015 489.5 7V83C489.5 86.5898 486.59 89.5 483 89.5H407C403.41 89.5 400.5 86.5898 400.5 83V7Z"
    stroke="url(#paint26_linear-banner-desktop)" />
  <path
    d="M300.5 7C300.5 3.41015 303.41 0.5 307 0.5H383C386.59 0.5 389.5 3.41015 389.5 7V83C389.5 86.5898 386.59 89.5 383 89.5H307C303.41 89.5 300.5 86.5898 300.5 83V7Z"
    stroke="url(#paint27_linear-banner-desktop)" />
  <path
    d="M200.5 7C200.5 3.41015 203.41 0.5 207 0.5H283C286.59 0.5 289.5 3.41015 289.5 7V83C289.5 86.5898 286.59 89.5 283 89.5H207C203.41 89.5 200.5 86.5898 200.5 83V7Z"
    stroke="url(#paint28_linear-banner-desktop)" />
  <path
    d="M100.5 7C100.5 3.41015 103.41 0.5 107 0.5H183C186.59 0.5 189.5 3.41015 189.5 7V83C189.5 86.5898 186.59 89.5 183 89.5H107C103.41 89.5 100.5 86.5898 100.5 83V7Z"
    stroke="url(#paint29_linear-banner-desktop)" />
  <path
    d="M0.5 7C0.5 3.41015 3.41015 0.5 7 0.5H83C86.5898 0.5 89.5 3.41015 89.5 7V83C89.5 86.5898 86.5898 89.5 83 89.5H7C3.41015 89.5 0.5 86.5898 0.5 83V7Z"
    stroke="url(#paint30_linear-banner-desktop)" />
  <defs>
    <linearGradient id="paint0_linear-banner-desktop" x1="-525.5" y1="188" x2="915" y2="188"
                    gradientUnits="userSpaceOnUse">
      <stop offset="0.367635" stop-color="#FCB5EF" stop-opacity="0" />
      <stop offset="0.819369" stop-color="#FCB5EF" />
      <stop offset="1" stop-color="#F7DE52" />
    </linearGradient>
    <linearGradient id="paint1_linear-banner-desktop" x1="-525.5" y1="188" x2="915" y2="188"
                    gradientUnits="userSpaceOnUse">
      <stop offset="0.367635" stop-color="#FCB5EF" stop-opacity="0" />
      <stop offset="0.819369" stop-color="#FCB5EF" />
      <stop offset="1" stop-color="#F7DE52" />
    </linearGradient>
    <linearGradient id="paint2_linear-banner-desktop" x1="-525.5" y1="188" x2="915" y2="188"
                    gradientUnits="userSpaceOnUse">
      <stop offset="0.367635" stop-color="#FCB5EF" stop-opacity="0" />
      <stop offset="0.819369" stop-color="#FCB5EF" />
      <stop offset="1" stop-color="#F7DE52" />
    </linearGradient>
    <linearGradient id="paint3_linear-banner-desktop" x1="-525.5" y1="188" x2="915" y2="188"
                    gradientUnits="userSpaceOnUse">
      <stop offset="0.367635" stop-color="#FCB5EF" stop-opacity="0" />
      <stop offset="0.819369" stop-color="#FCB5EF" />
      <stop offset="1" stop-color="#F7DE52" />
    </linearGradient>
    <linearGradient id="paint4_linear-banner-desktop" x1="-525.5" y1="188" x2="915" y2="188"
                    gradientUnits="userSpaceOnUse">
      <stop offset="0.367635" stop-color="#FCB5EF" stop-opacity="0" />
      <stop offset="0.819369" stop-color="#FCB5EF" />
      <stop offset="1" stop-color="#F7DE52" />
    </linearGradient>
    <linearGradient id="paint5_linear-banner-desktop" x1="-525.5" y1="188" x2="915" y2="188"
                    gradientUnits="userSpaceOnUse">
      <stop offset="0.367635" stop-color="#FCB5EF" stop-opacity="0" />
      <stop offset="0.819369" stop-color="#FCB5EF" />
      <stop offset="1" stop-color="#F7DE52" />
    </linearGradient>
    <linearGradient id="paint6_linear-banner-desktop" x1="-525.5" y1="188" x2="915" y2="188"
                    gradientUnits="userSpaceOnUse">
      <stop offset="0.367635" stop-color="#FCB5EF" stop-opacity="0" />
      <stop offset="0.819369" stop-color="#FCB5EF" />
      <stop offset="1" stop-color="#F7DE52" />
    </linearGradient>
    <linearGradient id="paint7_linear-banner-desktop" x1="-525.5" y1="188" x2="915" y2="188"
                    gradientUnits="userSpaceOnUse">
      <stop offset="0.367635" stop-color="#FCB5EF" stop-opacity="0" />
      <stop offset="0.819369" stop-color="#FCB5EF" />
      <stop offset="1" stop-color="#F7DE52" />
    </linearGradient>
    <linearGradient id="paint8_linear-banner-desktop" x1="-525.5" y1="188" x2="915" y2="188"
                    gradientUnits="userSpaceOnUse">
      <stop offset="0.367635" stop-color="#FCB5EF" stop-opacity="0" />
      <stop offset="0.819369" stop-color="#FCB5EF" />
      <stop offset="1" stop-color="#F7DE52" />
    </linearGradient>
    <linearGradient id="paint9_linear-banner-desktop" x1="-525.5" y1="188" x2="915" y2="188"
                    gradientUnits="userSpaceOnUse">
      <stop offset="0.367635" stop-color="#FCB5EF" stop-opacity="0" />
      <stop offset="0.819369" stop-color="#FCB5EF" />
      <stop offset="1" stop-color="#F7DE52" />
    </linearGradient>
    <linearGradient id="paint10_linear-banner-desktop" x1="-525.5" y1="188" x2="915" y2="188"
                    gradientUnits="userSpaceOnUse">
      <stop offset="0.367635" stop-color="#FCB5EF" stop-opacity="0" />
      <stop offset="0.819369" stop-color="#FCB5EF" />
      <stop offset="1" stop-color="#F7DE52" />
    </linearGradient>
    <linearGradient id="paint11_linear-banner-desktop" x1="-525.5" y1="188" x2="915" y2="188"
                    gradientUnits="userSpaceOnUse">
      <stop offset="0.367635" stop-color="#FCB5EF" stop-opacity="0" />
      <stop offset="0.819369" stop-color="#FCB5EF" />
      <stop offset="1" stop-color="#F7DE52" />
    </linearGradient>
    <linearGradient id="paint12_linear-banner-desktop" x1="-525.5" y1="188" x2="915" y2="188"
                    gradientUnits="userSpaceOnUse">
      <stop offset="0.367635" stop-color="#FCB5EF" stop-opacity="0" />
      <stop offset="0.819369" stop-color="#FCB5EF" />
      <stop offset="1" stop-color="#F7DE52" />
    </linearGradient>
    <linearGradient id="paint13_linear-banner-desktop" x1="-525.5" y1="188" x2="915" y2="188"
                    gradientUnits="userSpaceOnUse">
      <stop offset="0.367635" stop-color="#FCB5EF" stop-opacity="0" />
      <stop offset="0.819369" stop-color="#FCB5EF" />
      <stop offset="1" stop-color="#F7DE52" />
    </linearGradient>
    <linearGradient id="paint14_linear-banner-desktop" x1="-525.5" y1="188" x2="915" y2="188"
                    gradientUnits="userSpaceOnUse">
      <stop offset="0.367635" stop-color="#FCB5EF" stop-opacity="0" />
      <stop offset="0.819369" stop-color="#FCB5EF" />
      <stop offset="1" stop-color="#F7DE52" />
    </linearGradient>
    <linearGradient id="paint15_linear-banner-desktop" x1="-525.5" y1="188" x2="915" y2="188"
                    gradientUnits="userSpaceOnUse">
      <stop offset="0.367635" stop-color="#FCB5EF" stop-opacity="0" />
      <stop offset="0.819369" stop-color="#FCB5EF" />
      <stop offset="1" stop-color="#F7DE52" />
    </linearGradient>
    <linearGradient id="paint16_linear-banner-desktop" x1="-525.5" y1="188" x2="915" y2="188"
                    gradientUnits="userSpaceOnUse">
      <stop offset="0.367635" stop-color="#FCB5EF" stop-opacity="0" />
      <stop offset="0.819369" stop-color="#FCB5EF" />
      <stop offset="1" stop-color="#F7DE52" />
    </linearGradient>
    <linearGradient id="paint17_linear-banner-desktop" x1="-525.5" y1="188" x2="915" y2="188"
                    gradientUnits="userSpaceOnUse">
      <stop offset="0.367635" stop-color="#FCB5EF" stop-opacity="0" />
      <stop offset="0.819369" stop-color="#FCB5EF" />
      <stop offset="1" stop-color="#F7DE52" />
    </linearGradient>
    <linearGradient id="paint18_linear-banner-desktop" x1="-525.5" y1="188" x2="915" y2="188"
                    gradientUnits="userSpaceOnUse">
      <stop offset="0.367635" stop-color="#FCB5EF" stop-opacity="0" />
      <stop offset="0.819369" stop-color="#FCB5EF" />
      <stop offset="1" stop-color="#F7DE52" />
    </linearGradient>
    <linearGradient id="paint19_linear-banner-desktop" x1="-525.5" y1="188" x2="915" y2="188"
                    gradientUnits="userSpaceOnUse">
      <stop offset="0.367635" stop-color="#FCB5EF" stop-opacity="0" />
      <stop offset="0.819369" stop-color="#FCB5EF" />
      <stop offset="1" stop-color="#F7DE52" />
    </linearGradient>
    <linearGradient id="paint20_linear-banner-desktop" x1="-525.5" y1="188" x2="915" y2="188"
                    gradientUnits="userSpaceOnUse">
      <stop offset="0.367635" stop-color="#FCB5EF" stop-opacity="0" />
      <stop offset="0.819369" stop-color="#FCB5EF" />
      <stop offset="1" stop-color="#F7DE52" />
    </linearGradient>
    <linearGradient id="paint21_linear-banner-desktop" x1="-525.5" y1="188" x2="915" y2="188"
                    gradientUnits="userSpaceOnUse">
      <stop offset="0.367635" stop-color="#FCB5EF" stop-opacity="0" />
      <stop offset="0.819369" stop-color="#FCB5EF" />
      <stop offset="1" stop-color="#F7DE52" />
    </linearGradient>
    <linearGradient id="paint22_linear-banner-desktop" x1="-525.5" y1="188" x2="915" y2="188"
                    gradientUnits="userSpaceOnUse">
      <stop offset="0.367635" stop-color="#FCB5EF" stop-opacity="0" />
      <stop offset="0.819369" stop-color="#FCB5EF" />
      <stop offset="1" stop-color="#F7DE52" />
    </linearGradient>
    <linearGradient id="paint23_linear-banner-desktop" x1="-525.5" y1="188" x2="915" y2="188"
                    gradientUnits="userSpaceOnUse">
      <stop offset="0.367635" stop-color="#FCB5EF" stop-opacity="0" />
      <stop offset="0.819369" stop-color="#FCB5EF" />
      <stop offset="1" stop-color="#F7DE52" />
    </linearGradient>
    <linearGradient id="paint24_linear-banner-desktop" x1="-525.5" y1="188" x2="915" y2="188"
                    gradientUnits="userSpaceOnUse">
      <stop offset="0.367635" stop-color="#FCB5EF" stop-opacity="0" />
      <stop offset="0.819369" stop-color="#FCB5EF" />
      <stop offset="1" stop-color="#F7DE52" />
    </linearGradient>
    <linearGradient id="paint25_linear-banner-desktop" x1="-525.5" y1="188" x2="915" y2="188"
                    gradientUnits="userSpaceOnUse">
      <stop offset="0.367635" stop-color="#FCB5EF" stop-opacity="0" />
      <stop offset="0.819369" stop-color="#FCB5EF" />
      <stop offset="1" stop-color="#F7DE52" />
    </linearGradient>
    <linearGradient id="paint26_linear-banner-desktop" x1="-525.5" y1="188" x2="915" y2="188"
                    gradientUnits="userSpaceOnUse">
      <stop offset="0.367635" stop-color="#FCB5EF" stop-opacity="0" />
      <stop offset="0.819369" stop-color="#FCB5EF" />
      <stop offset="1" stop-color="#F7DE52" />
    </linearGradient>
    <linearGradient id="paint27_linear-banner-desktop" x1="-525.5" y1="188" x2="915" y2="188"
                    gradientUnits="userSpaceOnUse">
      <stop offset="0.367635" stop-color="#FCB5EF" stop-opacity="0" />
      <stop offset="0.819369" stop-color="#FCB5EF" />
      <stop offset="1" stop-color="#F7DE52" />
    </linearGradient>
    <linearGradient id="paint28_linear-banner-desktop" x1="-525.5" y1="188" x2="915" y2="188"
                    gradientUnits="userSpaceOnUse">
      <stop offset="0.367635" stop-color="#FCB5EF" stop-opacity="0" />
      <stop offset="0.819369" stop-color="#FCB5EF" />
      <stop offset="1" stop-color="#F7DE52" />
    </linearGradient>
    <linearGradient id="paint29_linear-banner-desktop" x1="-525.5" y1="188" x2="915" y2="188"
                    gradientUnits="userSpaceOnUse">
      <stop offset="0.367635" stop-color="#FCB5EF" stop-opacity="0" />
      <stop offset="0.819369" stop-color="#FCB5EF" />
      <stop offset="1" stop-color="#F7DE52" />
    </linearGradient>
    <linearGradient id="paint30_linear-banner-desktop" x1="-525.5" y1="188" x2="915" y2="188"
                    gradientUnits="userSpaceOnUse">
      <stop offset="0.367635" stop-color="#FCB5EF" stop-opacity="0" />
      <stop offset="0.819369" stop-color="#FCB5EF" />
      <stop offset="1" stop-color="#F7DE52" />
    </linearGradient>
  </defs>
</svg>
