<svg preserveAspectRatio="xMinYMin meet" width="616" height="382" viewBox="0 0 616 382" fill="none"
     xmlns="http://www.w3.org/2000/svg">
  <path
    d="M551.444 312.5H610.556C613.286 312.5 615.5 314.714 615.5 317.444V376.556C615.5 379.286 613.286 381.5 610.556 381.5H551.444C548.714 381.5 546.5 379.286 546.5 376.556V317.444C546.5 314.714 548.714 312.5 551.444 312.5Z"
    stroke="url(#paint0tablet_linear_1-banner)" />
  <path
    d="M473.444 312.5H532.556C535.286 312.5 537.5 314.714 537.5 317.444V376.556C537.5 379.286 535.286 381.5 532.556 381.5H473.444C470.714 381.5 468.5 379.286 468.5 376.556V317.444C468.5 314.714 470.714 312.5 473.444 312.5Z"
    stroke="url(#paint1tablet_linear_1-banner)" />
  <path
    d="M395.444 312.5H454.556C457.286 312.5 459.5 314.714 459.5 317.444V376.556C459.5 379.286 457.286 381.5 454.556 381.5H395.444C392.714 381.5 390.5 379.286 390.5 376.556V317.444C390.5 314.714 392.714 312.5 395.444 312.5Z"
    stroke="url(#paint2tablet_linear_1-banner)" />
  <path
    d="M317.444 312.5H376.556C379.286 312.5 381.5 314.714 381.5 317.444V376.556C381.5 379.286 379.286 381.5 376.556 381.5H317.444C314.714 381.5 312.5 379.286 312.5 376.556V317.444C312.5 314.714 314.714 312.5 317.444 312.5Z"
    stroke="url(#paint3tablet_linear_1-banner)" />
  <path
    d="M239.444 312.5H298.556C301.286 312.5 303.5 314.714 303.5 317.444V376.556C303.5 379.286 301.286 381.5 298.556 381.5H239.444C236.714 381.5 234.5 379.286 234.5 376.556V317.444C234.5 314.714 236.714 312.5 239.444 312.5Z"
    stroke="url(#paint4tablet_linear_1-banner)" />
  <path
    d="M161.444 312.5H220.556C223.286 312.5 225.5 314.714 225.5 317.444V376.556C225.5 379.286 223.286 381.5 220.556 381.5H161.444C158.714 381.5 156.5 379.286 156.5 376.556V317.444C156.5 314.714 158.714 312.5 161.444 312.5Z"
    stroke="url(#paint5tablet_linear_1-banner)" />
  <path
    d="M83.4444 312.5H142.556C145.286 312.5 147.5 314.714 147.5 317.444V376.556C147.5 379.286 145.286 381.5 142.556 381.5H83.4444C80.7137 381.5 78.5 379.286 78.5 376.556V317.444C78.5 314.714 80.7137 312.5 83.4444 312.5Z"
    stroke="url(#paint6tablet_linear_1-banner)" />
  <path
    d="M5.44444 312.5H64.5556C67.2863 312.5 69.5 314.714 69.5 317.444V376.556C69.5 379.286 67.2863 381.5 64.5556 381.5H5.44444C2.7137 381.5 0.5 379.286 0.5 376.556V317.444C0.5 314.714 2.7137 312.5 5.44444 312.5Z"
    stroke="url(#paint7tablet_linear_1-banner)" />
  <path
    d="M551.444 234.5H610.556C613.286 234.5 615.5 236.714 615.5 239.444V298.556C615.5 301.286 613.286 303.5 610.556 303.5H551.444C548.714 303.5 546.5 301.286 546.5 298.556V239.444C546.5 236.714 548.714 234.5 551.444 234.5Z"
    stroke="url(#paint8tablet_linear_1-banner)" />
  <path
    d="M473.444 234.5H532.556C535.286 234.5 537.5 236.714 537.5 239.444V298.556C537.5 301.286 535.286 303.5 532.556 303.5H473.444C470.714 303.5 468.5 301.286 468.5 298.556V239.444C468.5 236.714 470.714 234.5 473.444 234.5Z"
    stroke="url(#paint9tablet_linear_1-banner)" />
  <path
    d="M395.444 234.5H454.556C457.286 234.5 459.5 236.714 459.5 239.444V298.556C459.5 301.286 457.286 303.5 454.556 303.5H395.444C392.714 303.5 390.5 301.286 390.5 298.556V239.444C390.5 236.714 392.714 234.5 395.444 234.5Z"
    stroke="url(#paint10tablet_linear_1-banner)" />
  <path
    d="M317.444 234.5H376.556C379.286 234.5 381.5 236.714 381.5 239.444V298.556C381.5 301.286 379.286 303.5 376.556 303.5H317.444C314.714 303.5 312.5 301.286 312.5 298.556V239.444C312.5 236.714 314.714 234.5 317.444 234.5Z"
    stroke="url(#paint11tablet_linear_1-banner)" />
  <path
    d="M239.444 234.5H298.556C301.286 234.5 303.5 236.714 303.5 239.444V298.556C303.5 301.286 301.286 303.5 298.556 303.5H239.444C236.714 303.5 234.5 301.286 234.5 298.556V239.444C234.5 236.714 236.714 234.5 239.444 234.5Z"
    stroke="url(#paint12tablet_linear_1-banner)" />
  <path
    d="M551.444 156.5H610.556C613.286 156.5 615.5 158.714 615.5 161.444V220.556C615.5 223.286 613.286 225.5 610.556 225.5H551.444C548.714 225.5 546.5 223.286 546.5 220.556V161.444C546.5 158.714 548.714 156.5 551.444 156.5Z"
    stroke="url(#paint13tablet_linear_1-banner)" />
  <path
    d="M473.444 156.5H532.556C535.286 156.5 537.5 158.714 537.5 161.444V220.556C537.5 223.286 535.286 225.5 532.556 225.5H473.444C470.714 225.5 468.5 223.286 468.5 220.556V161.444C468.5 158.714 470.714 156.5 473.444 156.5Z"
    stroke="url(#paint14tablet_linear_1-banner)" />
  <path
    d="M395.444 156.5H454.556C457.286 156.5 459.5 158.714 459.5 161.444V220.556C459.5 223.286 457.286 225.5 454.556 225.5H395.444C392.714 225.5 390.5 223.286 390.5 220.556V161.444C390.5 158.714 392.714 156.5 395.444 156.5Z"
    stroke="url(#paint15tablet_linear_1-banner)" />
  <path
    d="M317.444 156.5H376.556C379.286 156.5 381.5 158.714 381.5 161.444V220.556C381.5 223.286 379.286 225.5 376.556 225.5H317.444C314.714 225.5 312.5 223.286 312.5 220.556V161.444C312.5 158.714 314.714 156.5 317.444 156.5Z"
    stroke="url(#paint16tablet_linear_1-banner)" />
  <path
    d="M239.444 156.5H298.556C301.286 156.5 303.5 158.714 303.5 161.444V220.556C303.5 223.286 301.286 225.5 298.556 225.5H239.444C236.714 225.5 234.5 223.286 234.5 220.556V161.444C234.5 158.714 236.714 156.5 239.444 156.5Z"
    stroke="url(#paint17tablet_linear_1-banner)" />
  <path
    d="M551.444 78.5H610.556C613.286 78.5 615.5 80.7137 615.5 83.4444V142.556C615.5 145.286 613.286 147.5 610.556 147.5H551.444C548.714 147.5 546.5 145.286 546.5 142.556V83.4444C546.5 80.7137 548.714 78.5 551.444 78.5Z"
    stroke="url(#paint18tablet_linear_1-banner)" />
  <path
    d="M473.444 78.5H532.556C535.286 78.5 537.5 80.7137 537.5 83.4444V142.556C537.5 145.286 535.286 147.5 532.556 147.5H473.444C470.714 147.5 468.5 145.286 468.5 142.556V83.4444C468.5 80.7137 470.714 78.5 473.444 78.5Z"
    stroke="url(#paint19tablet_linear_1-banner)" />
  <path
    d="M395.444 78.5H454.556C457.286 78.5 459.5 80.7137 459.5 83.4444V142.556C459.5 145.286 457.286 147.5 454.556 147.5H395.444C392.714 147.5 390.5 145.286 390.5 142.556V83.4444C390.5 80.7137 392.714 78.5 395.444 78.5Z"
    stroke="url(#paint20tablet_linear_1-banner)" />
  <path
    d="M317.444 78.5H376.556C379.286 78.5 381.5 80.7137 381.5 83.4444V142.556C381.5 145.286 379.286 147.5 376.556 147.5H317.444C314.714 147.5 312.5 145.286 312.5 142.556V83.4444C312.5 80.7137 314.714 78.5 317.444 78.5Z"
    stroke="url(#paint21tablet_linear_1-banner)" />
  <path
    d="M239.444 78.5H298.556C301.286 78.5 303.5 80.7137 303.5 83.4444V142.556C303.5 145.286 301.286 147.5 298.556 147.5H239.444C236.714 147.5 234.5 145.286 234.5 142.556V83.4444C234.5 80.7137 236.714 78.5 239.444 78.5Z"
    stroke="url(#paint22tablet_linear_1-banner)" />
  <path
    d="M551.444 0.5H610.556C613.286 0.5 615.5 2.7137 615.5 5.44445V64.5556C615.5 67.2863 613.286 69.5 610.556 69.5H551.444C548.714 69.5 546.5 67.2863 546.5 64.5556V5.44445C546.5 2.71371 548.714 0.5 551.444 0.5Z"
    stroke="url(#paint23tablet_linear_1-banner)" />
  <path
    d="M473.444 0.5H532.556C535.286 0.5 537.5 2.7137 537.5 5.44445V64.5556C537.5 67.2863 535.286 69.5 532.556 69.5H473.444C470.714 69.5 468.5 67.2863 468.5 64.5556V5.44445C468.5 2.71371 470.714 0.5 473.444 0.5Z"
    stroke="url(#paint24tablet_linear_1-banner)" />
  <path
    d="M395.444 0.5H454.556C457.286 0.5 459.5 2.7137 459.5 5.44445V64.5556C459.5 67.2863 457.286 69.5 454.556 69.5H395.444C392.714 69.5 390.5 67.2863 390.5 64.5556V5.44445C390.5 2.71371 392.714 0.5 395.444 0.5Z"
    stroke="url(#paint25tablet_linear_1-banner)" />
  <path
    d="M317.444 0.5H376.556C379.286 0.5 381.5 2.7137 381.5 5.44445V64.5556C381.5 67.2863 379.286 69.5 376.556 69.5H317.444C314.714 69.5 312.5 67.2863 312.5 64.5556V5.44445C312.5 2.71371 314.714 0.5 317.444 0.5Z"
    stroke="url(#paint26tablet_linear_1-banner)" />
  <path
    d="M239.444 0.5H298.556C301.286 0.5 303.5 2.7137 303.5 5.44445V64.5556C303.5 67.2863 301.286 69.5 298.556 69.5H239.444C236.714 69.5 234.5 67.2863 234.5 64.5556V5.44445C234.5 2.71371 236.714 0.5 239.444 0.5Z"
    stroke="url(#paint27tablet_linear_1-banner)" />
  <path
    d="M161.444 0.5H220.556C223.286 0.5 225.5 2.7137 225.5 5.44445V64.5556C225.5 67.2863 223.286 69.5 220.556 69.5H161.444C158.714 69.5 156.5 67.2863 156.5 64.5556V5.44445C156.5 2.71371 158.714 0.5 161.444 0.5Z"
    stroke="url(#paint28tablet_linear_1-banner)" />
  <path
    d="M83.4444 0.5H142.556C145.286 0.5 147.5 2.7137 147.5 5.44445V64.5556C147.5 67.2863 145.286 69.5 142.556 69.5H83.4444C80.7137 69.5 78.5 67.2863 78.5 64.5556V5.44445C78.5 2.71371 80.7137 0.5 83.4444 0.5Z"
    stroke="url(#paint29tablet_linear_1-banner)" />
  <path
    d="M5.44444 0.5H64.5556C67.2863 0.5 69.5 2.7137 69.5 5.44445V64.5556C69.5 67.2863 67.2863 69.5 64.5556 69.5H5.44444C2.7137 69.5 0.5 67.2863 0.5 64.5556V5.44445C0.5 2.71371 2.7137 0.5 5.44444 0.5Z"
    stroke="url(#paint30tablet_linear_1-banner)" />
  <defs>
    <linearGradient id="paint0tablet_linear_1-banner" x1="-407.167" y1="147.111" x2="713.222" y2="147.111"
                    gradientUnits="userSpaceOnUse">
      <stop offset="0.367635" stop-color="#FCB5EF" stop-opacity="0" />
      <stop offset="0.819369" stop-color="#FCB5EF" />
      <stop offset="1" stop-color="#F7DE52" />
    </linearGradient>
    <linearGradient id="paint1tablet_linear_1-banner" x1="-407.389" y1="147.111" x2="713" y2="147.111"
                    gradientUnits="userSpaceOnUse">
      <stop offset="0.367635" stop-color="#FCB5EF" stop-opacity="0" />
      <stop offset="0.819369" stop-color="#FCB5EF" />
      <stop offset="1" stop-color="#F7DE52" />
    </linearGradient>
    <linearGradient id="paint2tablet_linear_1-banner" x1="-407.611" y1="147.111" x2="712.778" y2="147.111"
                    gradientUnits="userSpaceOnUse">
      <stop offset="0.367635" stop-color="#FCB5EF" stop-opacity="0" />
      <stop offset="0.819369" stop-color="#FCB5EF" />
      <stop offset="1" stop-color="#F7DE52" />
    </linearGradient>
    <linearGradient id="paint3tablet_linear_1-banner" x1="-407.833" y1="147.111" x2="712.555" y2="147.111"
                    gradientUnits="userSpaceOnUse">
      <stop offset="0.367635" stop-color="#FCB5EF" stop-opacity="0" />
      <stop offset="0.819369" stop-color="#FCB5EF" />
      <stop offset="1" stop-color="#F7DE52" />
    </linearGradient>
    <linearGradient id="paint4tablet_linear_1-banner" x1="-408.056" y1="147.111" x2="712.333" y2="147.111"
                    gradientUnits="userSpaceOnUse">
      <stop offset="0.367635" stop-color="#FCB5EF" stop-opacity="0" />
      <stop offset="0.819369" stop-color="#FCB5EF" />
      <stop offset="1" stop-color="#F7DE52" />
    </linearGradient>
    <linearGradient id="paint5tablet_linear_1-banner" x1="-408.278" y1="147.111" x2="712.111" y2="147.111"
                    gradientUnits="userSpaceOnUse">
      <stop offset="0.367635" stop-color="#FCB5EF" stop-opacity="0" />
      <stop offset="0.819369" stop-color="#FCB5EF" />
      <stop offset="1" stop-color="#F7DE52" />
    </linearGradient>
    <linearGradient id="paint6tablet_linear_1-banner" x1="-408.5" y1="147.111" x2="711.889" y2="147.111"
                    gradientUnits="userSpaceOnUse">
      <stop offset="0.367635" stop-color="#FCB5EF" stop-opacity="0" />
      <stop offset="0.819369" stop-color="#FCB5EF" />
      <stop offset="1" stop-color="#F7DE52" />
    </linearGradient>
    <linearGradient id="paint7tablet_linear_1-banner" x1="-408.722" y1="147.111" x2="711.667" y2="147.111"
                    gradientUnits="userSpaceOnUse">
      <stop offset="0.367635" stop-color="#FCB5EF" stop-opacity="0" />
      <stop offset="0.819369" stop-color="#FCB5EF" />
      <stop offset="1" stop-color="#F7DE52" />
    </linearGradient>
    <linearGradient id="paint8tablet_linear_1-banner" x1="-407.166" y1="146.889" x2="713.222" y2="146.889"
                    gradientUnits="userSpaceOnUse">
      <stop offset="0.367635" stop-color="#FCB5EF" stop-opacity="0" />
      <stop offset="0.819369" stop-color="#FCB5EF" />
      <stop offset="1" stop-color="#F7DE52" />
    </linearGradient>
    <linearGradient id="paint9tablet_linear_1-banner" x1="-407.389" y1="146.889" x2="713" y2="146.889"
                    gradientUnits="userSpaceOnUse">
      <stop offset="0.367635" stop-color="#FCB5EF" stop-opacity="0" />
      <stop offset="0.819369" stop-color="#FCB5EF" />
      <stop offset="1" stop-color="#F7DE52" />
    </linearGradient>
    <linearGradient id="paint10tablet_linear_1-banner" x1="-407.611" y1="146.889" x2="712.778" y2="146.889"
                    gradientUnits="userSpaceOnUse">
      <stop offset="0.367635" stop-color="#FCB5EF" stop-opacity="0" />
      <stop offset="0.819369" stop-color="#FCB5EF" />
      <stop offset="1" stop-color="#F7DE52" />
    </linearGradient>
    <linearGradient id="paint11tablet_linear_1-banner" x1="-407.833" y1="146.889" x2="712.555" y2="146.889"
                    gradientUnits="userSpaceOnUse">
      <stop offset="0.367635" stop-color="#FCB5EF" stop-opacity="0" />
      <stop offset="0.819369" stop-color="#FCB5EF" />
      <stop offset="1" stop-color="#F7DE52" />
    </linearGradient>
    <linearGradient id="paint12tablet_linear_1-banner" x1="-408.055" y1="146.889" x2="712.333" y2="146.889"
                    gradientUnits="userSpaceOnUse">
      <stop offset="0.367635" stop-color="#FCB5EF" stop-opacity="0" />
      <stop offset="0.819369" stop-color="#FCB5EF" />
      <stop offset="1" stop-color="#F7DE52" />
    </linearGradient>
    <linearGradient id="paint13tablet_linear_1-banner" x1="-407.167" y1="146.667" x2="713.222" y2="146.667"
                    gradientUnits="userSpaceOnUse">
      <stop offset="0.367635" stop-color="#FCB5EF" stop-opacity="0" />
      <stop offset="0.819369" stop-color="#FCB5EF" />
      <stop offset="1" stop-color="#F7DE52" />
    </linearGradient>
    <linearGradient id="paint14tablet_linear_1-banner" x1="-407.389" y1="146.667" x2="713" y2="146.667"
                    gradientUnits="userSpaceOnUse">
      <stop offset="0.367635" stop-color="#FCB5EF" stop-opacity="0" />
      <stop offset="0.819369" stop-color="#FCB5EF" />
      <stop offset="1" stop-color="#F7DE52" />
    </linearGradient>
    <linearGradient id="paint15tablet_linear_1-banner" x1="-407.611" y1="146.667" x2="712.778" y2="146.667"
                    gradientUnits="userSpaceOnUse">
      <stop offset="0.367635" stop-color="#FCB5EF" stop-opacity="0" />
      <stop offset="0.819369" stop-color="#FCB5EF" />
      <stop offset="1" stop-color="#F7DE52" />
    </linearGradient>
    <linearGradient id="paint16tablet_linear_1-banner" x1="-407.833" y1="146.667" x2="712.555" y2="146.667"
                    gradientUnits="userSpaceOnUse">
      <stop offset="0.367635" stop-color="#FCB5EF" stop-opacity="0" />
      <stop offset="0.819369" stop-color="#FCB5EF" />
      <stop offset="1" stop-color="#F7DE52" />
    </linearGradient>
    <linearGradient id="paint17tablet_linear_1-banner" x1="-408.055" y1="146.667" x2="712.333" y2="146.667"
                    gradientUnits="userSpaceOnUse">
      <stop offset="0.367635" stop-color="#FCB5EF" stop-opacity="0" />
      <stop offset="0.819369" stop-color="#FCB5EF" />
      <stop offset="1" stop-color="#F7DE52" />
    </linearGradient>
    <linearGradient id="paint18tablet_linear_1-banner" x1="-407.167" y1="146.444" x2="713.222" y2="146.445"
                    gradientUnits="userSpaceOnUse">
      <stop offset="0.367635" stop-color="#FCB5EF" stop-opacity="0" />
      <stop offset="0.819369" stop-color="#FCB5EF" />
      <stop offset="1" stop-color="#F7DE52" />
    </linearGradient>
    <linearGradient id="paint19tablet_linear_1-banner" x1="-407.389" y1="146.444" x2="713" y2="146.445"
                    gradientUnits="userSpaceOnUse">
      <stop offset="0.367635" stop-color="#FCB5EF" stop-opacity="0" />
      <stop offset="0.819369" stop-color="#FCB5EF" />
      <stop offset="1" stop-color="#F7DE52" />
    </linearGradient>
    <linearGradient id="paint20tablet_linear_1-banner" x1="-407.611" y1="146.444" x2="712.778" y2="146.445"
                    gradientUnits="userSpaceOnUse">
      <stop offset="0.367635" stop-color="#FCB5EF" stop-opacity="0" />
      <stop offset="0.819369" stop-color="#FCB5EF" />
      <stop offset="1" stop-color="#F7DE52" />
    </linearGradient>
    <linearGradient id="paint21tablet_linear_1-banner" x1="-407.833" y1="146.444" x2="712.555" y2="146.445"
                    gradientUnits="userSpaceOnUse">
      <stop offset="0.367635" stop-color="#FCB5EF" stop-opacity="0" />
      <stop offset="0.819369" stop-color="#FCB5EF" />
      <stop offset="1" stop-color="#F7DE52" />
    </linearGradient>
    <linearGradient id="paint22tablet_linear_1-banner" x1="-408.055" y1="146.444" x2="712.333" y2="146.445"
                    gradientUnits="userSpaceOnUse">
      <stop offset="0.367635" stop-color="#FCB5EF" stop-opacity="0" />
      <stop offset="0.819369" stop-color="#FCB5EF" />
      <stop offset="1" stop-color="#F7DE52" />
    </linearGradient>
    <linearGradient id="paint23tablet_linear_1-banner" x1="-407.167" y1="146.222" x2="713.222" y2="146.222"
                    gradientUnits="userSpaceOnUse">
      <stop offset="0.367635" stop-color="#FCB5EF" stop-opacity="0" />
      <stop offset="0.819369" stop-color="#FCB5EF" />
      <stop offset="1" stop-color="#F7DE52" />
    </linearGradient>
    <linearGradient id="paint24tablet_linear_1-banner" x1="-407.389" y1="146.222" x2="713" y2="146.222"
                    gradientUnits="userSpaceOnUse">
      <stop offset="0.367635" stop-color="#FCB5EF" stop-opacity="0" />
      <stop offset="0.819369" stop-color="#FCB5EF" />
      <stop offset="1" stop-color="#F7DE52" />
    </linearGradient>
    <linearGradient id="paint25tablet_linear_1-banner" x1="-407.611" y1="146.222" x2="712.778" y2="146.222"
                    gradientUnits="userSpaceOnUse">
      <stop offset="0.367635" stop-color="#FCB5EF" stop-opacity="0" />
      <stop offset="0.819369" stop-color="#FCB5EF" />
      <stop offset="1" stop-color="#F7DE52" />
    </linearGradient>
    <linearGradient id="paint26tablet_linear_1-banner" x1="-407.833" y1="146.222" x2="712.555" y2="146.222"
                    gradientUnits="userSpaceOnUse">
      <stop offset="0.367635" stop-color="#FCB5EF" stop-opacity="0" />
      <stop offset="0.819369" stop-color="#FCB5EF" />
      <stop offset="1" stop-color="#F7DE52" />
    </linearGradient>
    <linearGradient id="paint27tablet_linear_1-banner" x1="-408.056" y1="146.222" x2="712.333" y2="146.222"
                    gradientUnits="userSpaceOnUse">
      <stop offset="0.367635" stop-color="#FCB5EF" stop-opacity="0" />
      <stop offset="0.819369" stop-color="#FCB5EF" />
      <stop offset="1" stop-color="#F7DE52" />
    </linearGradient>
    <linearGradient id="paint28tablet_linear_1-banner" x1="-408.278" y1="146.222" x2="712.111" y2="146.222"
                    gradientUnits="userSpaceOnUse">
      <stop offset="0.367635" stop-color="#FCB5EF" stop-opacity="0" />
      <stop offset="0.819369" stop-color="#FCB5EF" />
      <stop offset="1" stop-color="#F7DE52" />
    </linearGradient>
    <linearGradient id="paint29tablet_linear_1-banner" x1="-408.5" y1="146.222" x2="711.889" y2="146.222"
                    gradientUnits="userSpaceOnUse">
      <stop offset="0.367635" stop-color="#FCB5EF" stop-opacity="0" />
      <stop offset="0.819369" stop-color="#FCB5EF" />
      <stop offset="1" stop-color="#F7DE52" />
    </linearGradient>
    <linearGradient id="paint30tablet_linear_1-banner" x1="-408.722" y1="146.222" x2="711.667" y2="146.222"
                    gradientUnits="userSpaceOnUse">
      <stop offset="0.367635" stop-color="#FCB5EF" stop-opacity="0" />
      <stop offset="0.819369" stop-color="#FCB5EF" />
      <stop offset="1" stop-color="#F7DE52" />
    </linearGradient>
  </defs>
</svg>
